%TF.GenerationSoftware,KiCad,Pcbnew,8.0.2*%
%TF.CreationDate,2024-05-12T16:12:48+02:00*%
%TF.ProjectId,PiRTOII_cart,50695254-4f49-4495-9f63-6172742e6b69,rev?*%
%TF.SameCoordinates,Original*%
%TF.FileFunction,Copper,L1,Top*%
%TF.FilePolarity,Positive*%
%FSLAX46Y46*%
G04 Gerber Fmt 4.6, Leading zero omitted, Abs format (unit mm)*
G04 Created by KiCad (PCBNEW 8.0.2) date 2024-05-12 16:12:48*
%MOMM*%
%LPD*%
G01*
G04 APERTURE LIST*
%TA.AperFunction,ComponentPad*%
%ADD10O,1.700000X1.700000*%
%TD*%
%TA.AperFunction,ComponentPad*%
%ADD11R,1.700000X1.700000*%
%TD*%
%TA.AperFunction,ComponentPad*%
%ADD12O,1.600000X1.600000*%
%TD*%
%TA.AperFunction,ComponentPad*%
%ADD13R,1.600000X1.600000*%
%TD*%
%TA.AperFunction,ComponentPad*%
%ADD14O,1.500000X1.050000*%
%TD*%
%TA.AperFunction,ComponentPad*%
%ADD15R,1.500000X1.050000*%
%TD*%
%TA.AperFunction,ConnectorPad*%
%ADD16R,1.270000X8.840000*%
%TD*%
%TA.AperFunction,ComponentPad*%
%ADD17C,1.750000*%
%TD*%
%TA.AperFunction,ComponentPad*%
%ADD18C,2.100000*%
%TD*%
%TA.AperFunction,ViaPad*%
%ADD19C,0.800000*%
%TD*%
%TA.AperFunction,Conductor*%
%ADD20C,0.250000*%
%TD*%
G04 APERTURE END LIST*
D10*
%TO.P,J2,20,Pin_20*%
%TO.N,bc2'*%
X142590000Y-128550000D03*
%TO.P,J2,19,Pin_19*%
%TO.N,bdir'*%
X140050000Y-128550000D03*
%TO.P,J2,18,Pin_18*%
%TO.N,d15'*%
X137510000Y-128550000D03*
%TO.P,J2,17,Pin_17*%
%TO.N,d14'*%
X134970000Y-128550000D03*
%TO.P,J2,16,Pin_16*%
%TO.N,d13'*%
X132430000Y-128550000D03*
%TO.P,J2,15,Pin_15*%
%TO.N,GND*%
X129890000Y-128550000D03*
%TO.P,J2,14,Pin_14*%
%TO.N,d12'*%
X127350000Y-128550000D03*
%TO.P,J2,13,Pin_13*%
%TO.N,d11'*%
X124810000Y-128550000D03*
%TO.P,J2,12,Pin_12*%
%TO.N,d10'*%
X122270000Y-128550000D03*
%TO.P,J2,11,Pin_11*%
%TO.N,d9'*%
X119730000Y-128550000D03*
%TO.P,J2,10,Pin_10*%
%TO.N,d8'*%
X117190000Y-128550000D03*
%TO.P,J2,9,Pin_9*%
%TO.N,d7'*%
X114650000Y-128550000D03*
%TO.P,J2,8,Pin_8*%
%TO.N,d6'*%
X112110000Y-128550000D03*
%TO.P,J2,7,Pin_7*%
%TO.N,d5'*%
X109570000Y-128550000D03*
%TO.P,J2,6,Pin_6*%
%TO.N,GND*%
X107030000Y-128550000D03*
%TO.P,J2,5,Pin_5*%
%TO.N,d4'*%
X104490000Y-128550000D03*
%TO.P,J2,4,Pin_4*%
%TO.N,d3'*%
X101950000Y-128550000D03*
%TO.P,J2,3,Pin_3*%
%TO.N,d2'*%
X99410000Y-128550000D03*
%TO.P,J2,2,Pin_2*%
%TO.N,d1'*%
X96870000Y-128550000D03*
D11*
%TO.P,J2,1,Pin_1*%
%TO.N,d0'*%
X94330000Y-128550000D03*
%TD*%
D10*
%TO.P,J3,20,Pin_20*%
%TO.N,bc1'*%
X142580000Y-110750000D03*
%TO.P,J3,19,Pin_19*%
%TO.N,~{msync'}*%
X140040000Y-110750000D03*
%TO.P,J3,18,Pin_18*%
%TO.N,Reset*%
X137500000Y-110750000D03*
%TO.P,J3,17,Pin_17*%
%TO.N,unconnected-(J3-Pin_17-Pad17)*%
X134960000Y-110750000D03*
%TO.P,J3,16,Pin_16*%
%TO.N,unconnected-(J3-Pin_16-Pad16)*%
X132420000Y-110750000D03*
%TO.P,J3,15,Pin_15*%
%TO.N,unconnected-(J3-Pin_15-Pad15)*%
X129880000Y-110750000D03*
%TO.P,J3,14,Pin_14*%
%TO.N,unconnected-(J3-Pin_14-Pad14)*%
X127340000Y-110750000D03*
%TO.P,J3,13,Pin_13*%
%TO.N,unconnected-(J3-Pin_13-Pad13)*%
X124800000Y-110750000D03*
%TO.P,J3,12,Pin_12*%
%TO.N,GND*%
X122260000Y-110750000D03*
%TO.P,J3,11,Pin_11*%
%TO.N,unconnected-(J3-Pin_11-Pad11)*%
X119720000Y-110750000D03*
%TO.P,J3,10,Pin_10*%
%TO.N,unconnected-(J3-Pin_10-Pad10)*%
X117180000Y-110750000D03*
%TO.P,J3,9,Pin_9*%
%TO.N,unconnected-(J3-Pin_9-Pad9)*%
X114640000Y-110750000D03*
%TO.P,J3,8,Pin_8*%
%TO.N,unconnected-(J3-Pin_8-Pad8)*%
X112100000Y-110750000D03*
%TO.P,J3,7,Pin_7*%
%TO.N,RST*%
X109560000Y-110750000D03*
%TO.P,J3,6,Pin_6*%
%TO.N,GND*%
X107020000Y-110750000D03*
%TO.P,J3,5,Pin_5*%
%TO.N,unconnected-(J3-Pin_5-Pad5)*%
X104480000Y-110750000D03*
%TO.P,J3,4,Pin_4*%
%TO.N,unconnected-(J3-Pin_4-Pad4)*%
X101940000Y-110750000D03*
%TO.P,J3,3,Pin_3*%
%TO.N,GND*%
X99400000Y-110750000D03*
%TO.P,J3,2,Pin_2*%
%TO.N,Net-(D1-K)*%
X96860000Y-110750000D03*
D11*
%TO.P,J3,1,Pin_1*%
%TO.N,unconnected-(J3-Pin_1-Pad1)*%
X94320000Y-110750000D03*
%TD*%
D12*
%TO.P,D1,2,A*%
%TO.N,+5V*%
X102925000Y-143960000D03*
D13*
%TO.P,D1,1,K*%
%TO.N,Net-(D1-K)*%
X102925000Y-136340000D03*
%TD*%
D14*
%TO.P,Q1,3,E*%
%TO.N,rst'*%
X111075000Y-141740000D03*
%TO.P,Q1,2,B*%
%TO.N,Reset*%
X111075000Y-140470000D03*
D15*
%TO.P,Q1,1,C*%
%TO.N,GND*%
X111075000Y-139200000D03*
%TD*%
D16*
%TO.P,J1,44,Pin_44*%
%TO.N,GND*%
X91325700Y-187960000D03*
%TO.P,J1,42,Pin_42*%
%TO.N,Net-(J1-Pin_32)*%
X93865700Y-187960000D03*
%TO.P,J1,40,Pin_40*%
%TO.N,Net-(J1-Pin_34)*%
X96405700Y-187960000D03*
%TO.P,J1,38,Pin_38*%
%TO.N,Net-(J1-Pin_36)*%
X98945700Y-187960000D03*
%TO.P,J1,36,Pin_36*%
X101485700Y-187960000D03*
%TO.P,J1,34,Pin_34*%
%TO.N,Net-(J1-Pin_34)*%
X104025700Y-187960000D03*
%TO.P,J1,32,Pin_32*%
%TO.N,Net-(J1-Pin_32)*%
X106565700Y-187960000D03*
%TO.P,J1,30,Pin_30*%
%TO.N,unconnected-(J1-Pin_30-Pad30)*%
X109105700Y-187960000D03*
%TO.P,J1,28,Pin_28*%
%TO.N,GND*%
X111645700Y-187960000D03*
%TO.P,J1,26,Pin_26*%
X114185700Y-187960000D03*
%TO.P,J1,24,Pin_24*%
X116725700Y-187960000D03*
%TO.P,J1,22,Pin_22*%
X119265700Y-187960000D03*
%TO.P,J1,20,Pin_20*%
X121805700Y-187960000D03*
%TO.P,J1,18,Pin_18*%
%TO.N,unconnected-(J1-Pin_18-Pad18)*%
X124345700Y-187960000D03*
%TO.P,J1,16,Pin_16*%
%TO.N,unconnected-(J1-Pin_16-Pad16)*%
X126885700Y-187960000D03*
%TO.P,J1,14,Pin_14*%
%TO.N,unconnected-(J1-Pin_14-Pad14)*%
X129425700Y-187960000D03*
%TO.P,J1,12,Pin_12*%
%TO.N,rst'*%
X131965700Y-187960000D03*
%TO.P,J1,10,Pin_10*%
%TO.N,GND*%
X134505700Y-187960000D03*
%TO.P,J1,8,Pin_8*%
X137045700Y-187960000D03*
%TO.P,J1,6,Pin_6*%
%TO.N,unconnected-(J1-Pin_6-Pad6)*%
X139585700Y-187960000D03*
%TO.P,J1,4,Pin_4*%
%TO.N,unconnected-(J1-Pin_4-Pad4)*%
X142125700Y-187960000D03*
%TO.P,J1,2,Pin_2*%
%TO.N,unconnected-(J1-Pin_2-Pad2)*%
X144665700Y-187960000D03*
%TD*%
D17*
%TO.P,SW1,2,2*%
%TO.N,GND*%
X91625000Y-140775000D03*
%TO.P,SW1,1,1*%
%TO.N,RST*%
X91625000Y-145275000D03*
D18*
%TO.P,SW1,*%
%TO.N,*%
X94115000Y-139515000D03*
X94115000Y-146525000D03*
%TD*%
D19*
%TO.N,d0'*%
X102216200Y-181403800D03*
%TO.N,d1'*%
X106317600Y-181520100D03*
%TO.N,d2'*%
X110693800Y-178705700D03*
%TO.N,d3'*%
X117462900Y-175942200D03*
%TO.N,d4'*%
X122640500Y-180101600D03*
%TO.N,d10'*%
X122270000Y-167056800D03*
%TO.N,d5'*%
X122564400Y-178041600D03*
%TO.N,d6'*%
X134028000Y-182106700D03*
%TO.N,GND*%
X142775000Y-182106700D03*
%TD*%
D20*
%TO.N,Net-(D1-K)*%
X102925000Y-136340000D02*
X102925000Y-135213300D01*
X96860000Y-110750000D02*
X96860000Y-111926700D01*
X100681500Y-115748200D02*
X96860000Y-111926700D01*
X100681500Y-131312000D02*
X100681500Y-115748200D01*
X102925000Y-133555500D02*
X100681500Y-131312000D01*
X102925000Y-135213300D02*
X102925000Y-133555500D01*
%TO.N,rst'*%
X131965700Y-187960000D02*
X131965700Y-183213300D01*
X111075000Y-141740000D02*
X111075000Y-142591700D01*
X111075000Y-162322600D02*
X131965700Y-183213300D01*
X111075000Y-142591700D02*
X111075000Y-162322600D01*
%TO.N,Net-(J1-Pin_36)*%
X101485700Y-187960000D02*
X98945700Y-187960000D01*
%TO.N,Net-(J1-Pin_34)*%
X104025700Y-183213300D02*
X96405700Y-183213300D01*
X104025700Y-187960000D02*
X104025700Y-183213300D01*
X96405700Y-187960000D02*
X96405700Y-183213300D01*
%TO.N,Net-(J1-Pin_32)*%
X106565700Y-187960000D02*
X106565700Y-183213300D01*
X93865700Y-187960000D02*
X93865700Y-183213300D01*
X106102000Y-182749600D02*
X106565700Y-183213300D01*
X94329400Y-182749600D02*
X106102000Y-182749600D01*
X93865700Y-183213300D02*
X94329400Y-182749600D01*
%TO.N,d0'*%
X94330000Y-128550000D02*
X94330000Y-129726700D01*
X98509500Y-177697100D02*
X102216200Y-181403800D01*
X98509500Y-133906200D02*
X98509500Y-177697100D01*
X94330000Y-129726700D02*
X98509500Y-133906200D01*
%TO.N,d1'*%
X96870000Y-128550000D02*
X96870000Y-129726700D01*
X98961200Y-131817900D02*
X96870000Y-129726700D01*
X98961200Y-174163700D02*
X98961200Y-131817900D01*
X106317600Y-181520100D02*
X98961200Y-174163700D01*
%TO.N,d2'*%
X99410000Y-130904500D02*
X99410000Y-128550000D01*
X101798300Y-133292800D02*
X99410000Y-130904500D01*
X101798300Y-169810200D02*
X101798300Y-133292800D01*
X110693800Y-178705700D02*
X101798300Y-169810200D01*
%TO.N,d3'*%
X101950000Y-128550000D02*
X101950000Y-129726700D01*
X104265000Y-132041700D02*
X101950000Y-129726700D01*
X104265000Y-162744300D02*
X104265000Y-132041700D01*
X117462900Y-175942200D02*
X104265000Y-162744300D01*
%TO.N,d4'*%
X104490000Y-128550000D02*
X104490000Y-129726700D01*
X122640500Y-179460500D02*
X122640500Y-180101600D01*
X105778400Y-162598400D02*
X122640500Y-179460500D01*
X105778400Y-131015100D02*
X105778400Y-162598400D01*
X104490000Y-129726700D02*
X105778400Y-131015100D01*
%TO.N,d10'*%
X122270000Y-167056800D02*
X122270000Y-128550000D01*
%TO.N,d5'*%
X109570000Y-165047200D02*
X122564400Y-178041600D01*
X109570000Y-128550000D02*
X109570000Y-165047200D01*
%TO.N,d6'*%
X113286700Y-130903400D02*
X112110000Y-129726700D01*
X113286700Y-161365400D02*
X113286700Y-130903400D01*
X134028000Y-182106700D02*
X113286700Y-161365400D01*
X112110000Y-128550000D02*
X112110000Y-129726700D01*
%TO.N,GND*%
X114185700Y-187960000D02*
X114185700Y-185586600D01*
X111645700Y-187960000D02*
X111645700Y-183213300D01*
X116725700Y-185586600D02*
X114185700Y-185586600D01*
X119265700Y-187364500D02*
X116725700Y-187364500D01*
X119265700Y-187960000D02*
X119265700Y-187364500D01*
X119265700Y-187364500D02*
X119265700Y-186769000D01*
X116725700Y-187960000D02*
X116725700Y-187364500D01*
X116725700Y-187364500D02*
X116725700Y-185586600D01*
X134505700Y-187960000D02*
X134505700Y-185643300D01*
X137045700Y-185643300D02*
X137045700Y-187960000D01*
X122260000Y-110750000D02*
X122260000Y-111813300D01*
X121805700Y-187960000D02*
X121805700Y-183309900D01*
X121805600Y-183309900D02*
X121805700Y-183309900D01*
X121805600Y-184229100D02*
X121805600Y-183309900D01*
X119265700Y-186769000D02*
X121805600Y-184229100D01*
X139850800Y-139687500D02*
X139850800Y-182106700D01*
X129890000Y-129726700D02*
X139850800Y-139687500D01*
X142775000Y-182106700D02*
X139850800Y-182106700D01*
X137045700Y-184911800D02*
X137045700Y-185643300D01*
X139850800Y-182106700D02*
X137045700Y-184911800D01*
X129890000Y-128550000D02*
X129890000Y-129726700D01*
X91325700Y-187960000D02*
X91325700Y-183213300D01*
X112487200Y-183213300D02*
X111645700Y-183213300D01*
X114185700Y-184911800D02*
X112487200Y-183213300D01*
X114185700Y-185586600D02*
X114185700Y-184911800D01*
X137045700Y-185643300D02*
X134505700Y-185643300D01*
X92841100Y-141991100D02*
X91625000Y-140775000D01*
X92841100Y-145851900D02*
X92841100Y-141991100D01*
X92722100Y-145970900D02*
X92841100Y-145851900D01*
X92722100Y-182297900D02*
X92722100Y-145970900D01*
X110730300Y-182297900D02*
X92722100Y-182297900D01*
X111645700Y-183213300D02*
X110730300Y-182297900D01*
X92241100Y-182297900D02*
X91325700Y-183213300D01*
X92722100Y-182297900D02*
X92241100Y-182297900D01*
X107030000Y-128550000D02*
X107030000Y-127373300D01*
X107030000Y-127373300D02*
X107030000Y-112073000D01*
X107020000Y-112063000D02*
X107020000Y-110750000D01*
X107030000Y-112073000D02*
X107020000Y-112063000D01*
X122260000Y-112073000D02*
X107030000Y-112073000D01*
X122260000Y-111813300D02*
X122260000Y-112073000D01*
X122260000Y-119743300D02*
X129890000Y-127373300D01*
X122260000Y-112073000D02*
X122260000Y-119743300D01*
X129890000Y-128550000D02*
X129890000Y-127373300D01*
%TD*%
M02*
