%TF.GenerationSoftware,KiCad,Pcbnew,8.0.2*%
%TF.CreationDate,2024-05-12T16:12:48+02:00*%
%TF.ProjectId,PiRTOII_cart,50695254-4f49-4495-9f63-6172742e6b69,rev?*%
%TF.SameCoordinates,Original*%
%TF.FileFunction,Legend,Bot*%
%TF.FilePolarity,Positive*%
%FSLAX46Y46*%
G04 Gerber Fmt 4.6, Leading zero omitted, Abs format (unit mm)*
G04 Created by KiCad (PCBNEW 8.0.2) date 2024-05-12 16:12:48*
%MOMM*%
%LPD*%
G01*
G04 APERTURE LIST*
%ADD10O,1.700000X1.700000*%
%ADD11R,1.700000X1.700000*%
%ADD12O,1.600000X1.600000*%
%ADD13R,1.600000X1.600000*%
%ADD14O,1.500000X1.050000*%
%ADD15R,1.500000X1.050000*%
%ADD16R,1.270000X8.840000*%
%ADD17C,1.750000*%
%ADD18C,2.100000*%
G04 APERTURE END LIST*
%LPC*%
D10*
%TO.C,J2*%
X142590000Y-128550000D03*
X140050000Y-128550000D03*
X137510000Y-128550000D03*
X134970000Y-128550000D03*
X132430000Y-128550000D03*
X129890000Y-128550000D03*
X127350000Y-128550000D03*
X124810000Y-128550000D03*
X122270000Y-128550000D03*
X119730000Y-128550000D03*
X117190000Y-128550000D03*
X114650000Y-128550000D03*
X112110000Y-128550000D03*
X109570000Y-128550000D03*
X107030000Y-128550000D03*
X104490000Y-128550000D03*
X101950000Y-128550000D03*
X99410000Y-128550000D03*
X96870000Y-128550000D03*
D11*
X94330000Y-128550000D03*
%TD*%
D10*
%TO.C,J3*%
X142580000Y-110750000D03*
X140040000Y-110750000D03*
X137500000Y-110750000D03*
X134960000Y-110750000D03*
X132420000Y-110750000D03*
X129880000Y-110750000D03*
X127340000Y-110750000D03*
X124800000Y-110750000D03*
X122260000Y-110750000D03*
X119720000Y-110750000D03*
X117180000Y-110750000D03*
X114640000Y-110750000D03*
X112100000Y-110750000D03*
X109560000Y-110750000D03*
X107020000Y-110750000D03*
X104480000Y-110750000D03*
X101940000Y-110750000D03*
X99400000Y-110750000D03*
X96860000Y-110750000D03*
D11*
X94320000Y-110750000D03*
%TD*%
D12*
%TO.C,D1*%
X102925000Y-143960000D03*
D13*
X102925000Y-136340000D03*
%TD*%
D14*
%TO.C,Q1*%
X111075000Y-141740000D03*
X111075000Y-140470000D03*
D15*
X111075000Y-139200000D03*
%TD*%
D16*
%TO.C,J1*%
X91325700Y-187960000D03*
X93865700Y-187960000D03*
X96405700Y-187960000D03*
X98945700Y-187960000D03*
X101485700Y-187960000D03*
X104025700Y-187960000D03*
X106565700Y-187960000D03*
X109105700Y-187960000D03*
X111645700Y-187960000D03*
X114185700Y-187960000D03*
X116725700Y-187960000D03*
X119265700Y-187960000D03*
X121805700Y-187960000D03*
X124345700Y-187960000D03*
X126885700Y-187960000D03*
X129425700Y-187960000D03*
X131965700Y-187960000D03*
X134505700Y-187960000D03*
X137045700Y-187960000D03*
X139585700Y-187960000D03*
X142125700Y-187960000D03*
X144665700Y-187960000D03*
%TD*%
D17*
%TO.C,SW1*%
X91625000Y-140775000D03*
X91625000Y-145275000D03*
D18*
X94115000Y-139515000D03*
X94115000Y-146525000D03*
%TD*%
%LPD*%
M02*
