M48
; DRILL file {KiCad 8.0.2} date 2024-05-12T16:12:48+0200
; FORMAT={-:-/ absolute / inch / decimal}
; #@! TF.CreationDate,2024-05-12T16:12:48+02:00
; #@! TF.GenerationSoftware,Kicad,Pcbnew,8.0.2
; #@! TF.FileFunction,Plated,1,2,PTH
FMAT,2
INCH
; #@! TA.AperFunction,Plated,PTH,ViaDrill
T1C0.0157
; #@! TA.AperFunction,Plated,PTH,ComponentDrill
T2C0.0295
; #@! TA.AperFunction,Plated,PTH,ComponentDrill
T3C0.0315
; #@! TA.AperFunction,Plated,PTH,ComponentDrill
T4C0.0390
; #@! TA.AperFunction,Plated,PTH,ComponentDrill
T5C0.0394
; #@! TA.AperFunction,Plated,PTH,ComponentDrill
T6C0.0512
%
G90
G05
T1
X4.0243Y-7.1419
X4.1857Y-7.1465
X4.358Y-7.0357
X4.6245Y-6.9269
X4.8138Y-6.577
X4.8254Y-7.0095
X4.8284Y-7.0906
X5.2767Y-7.1696
X5.6211Y-7.1696
T2
X4.373Y-5.4803
X4.373Y-5.5303
X4.373Y-5.5803
T3
X4.0522Y-5.3677
X4.0522Y-5.6677
T4
X3.6073Y-5.5423
X3.6073Y-5.7195
T5
X3.7134Y-4.3602
X3.7138Y-5.061
X3.8134Y-4.3602
X3.8138Y-5.061
X3.9134Y-4.3602
X3.9138Y-5.061
X4.0134Y-4.3602
X4.0138Y-5.061
X4.1134Y-4.3602
X4.1138Y-5.061
X4.2134Y-4.3602
X4.2138Y-5.061
X4.3134Y-4.3602
X4.3138Y-5.061
X4.4134Y-4.3602
X4.4138Y-5.061
X4.5134Y-4.3602
X4.5138Y-5.061
X4.6134Y-4.3602
X4.6138Y-5.061
X4.7134Y-4.3602
X4.7138Y-5.061
X4.8134Y-4.3602
X4.8138Y-5.061
X4.9134Y-4.3602
X4.9138Y-5.061
X5.0134Y-4.3602
X5.0138Y-5.061
X5.1134Y-4.3602
X5.1138Y-5.061
X5.2134Y-4.3602
X5.2138Y-5.061
X5.3134Y-4.3602
X5.3138Y-5.061
X5.4134Y-4.3602
X5.4138Y-5.061
X5.5134Y-4.3602
X5.5138Y-5.061
X5.6134Y-4.3602
X5.6138Y-5.061
T6
X3.7053Y-5.4927
X3.7053Y-5.7687
M30
