%TF.GenerationSoftware,KiCad,Pcbnew,8.0.2*%
%TF.CreationDate,2024-05-12T16:12:48+02:00*%
%TF.ProjectId,PiRTOII_cart,50695254-4f49-4495-9f63-6172742e6b69,rev?*%
%TF.SameCoordinates,Original*%
%TF.FileFunction,Legend,Top*%
%TF.FilePolarity,Positive*%
%FSLAX46Y46*%
G04 Gerber Fmt 4.6, Leading zero omitted, Abs format (unit mm)*
G04 Created by KiCad (PCBNEW 8.0.2) date 2024-05-12 16:12:48*
%MOMM*%
%LPD*%
G01*
G04 APERTURE LIST*
%ADD10C,0.500000*%
%ADD11C,0.150000*%
%ADD12C,0.120000*%
%ADD13O,1.700000X1.700000*%
%ADD14R,1.700000X1.700000*%
%ADD15O,1.600000X1.600000*%
%ADD16R,1.600000X1.600000*%
%ADD17O,1.500000X1.050000*%
%ADD18R,1.500000X1.050000*%
%ADD19R,1.270000X8.840000*%
%ADD20C,1.750000*%
%ADD21C,2.100000*%
G04 APERTURE END LIST*
D10*
G36*
X109886858Y-144732508D02*
G01*
X110036901Y-144753438D01*
X110170575Y-144788322D01*
X110287882Y-144837158D01*
X110418828Y-144923979D01*
X110520676Y-145035606D01*
X110593424Y-145172038D01*
X110628888Y-145290641D01*
X110647985Y-145423198D01*
X110651622Y-145519321D01*
X110642220Y-145654890D01*
X110614013Y-145780413D01*
X110567001Y-145895889D01*
X110501184Y-146001319D01*
X110416562Y-146096702D01*
X110384176Y-146126264D01*
X110277802Y-146204911D01*
X110158805Y-146267286D01*
X110027186Y-146313389D01*
X109907861Y-146339379D01*
X109779771Y-146354068D01*
X109670987Y-146357684D01*
X109406594Y-146357684D01*
X109406594Y-147187500D01*
X108851552Y-147187500D01*
X108851552Y-145936976D01*
X109406594Y-145936976D01*
X109624581Y-145936976D01*
X109752290Y-145927286D01*
X109876968Y-145890077D01*
X109983031Y-145811396D01*
X110046669Y-145694731D01*
X110067449Y-145564500D01*
X110067882Y-145540081D01*
X110052297Y-145408104D01*
X109994720Y-145288643D01*
X109894717Y-145206347D01*
X109775234Y-145165388D01*
X109651854Y-145152115D01*
X109624581Y-145151735D01*
X109406594Y-145151735D01*
X109406594Y-145936976D01*
X108851552Y-145936976D01*
X108851552Y-144725532D01*
X109720446Y-144725532D01*
X109886858Y-144732508D01*
G37*
G36*
X111222540Y-145116320D02*
G01*
X111097518Y-145096323D01*
X110997226Y-145036331D01*
X110926622Y-144934944D01*
X110909909Y-144840326D01*
X110937537Y-144719597D01*
X110997226Y-144644931D01*
X111104607Y-144585853D01*
X111222540Y-144569216D01*
X111348630Y-144588145D01*
X111448464Y-144644931D01*
X111520861Y-144750342D01*
X111535171Y-144840326D01*
X111507736Y-144962621D01*
X111448464Y-145038773D01*
X111341519Y-145099281D01*
X111222540Y-145116320D01*
G37*
G36*
X111490596Y-147187500D02*
G01*
X110947767Y-147187500D01*
X110947767Y-145428951D01*
X111490596Y-145428951D01*
X111490596Y-147187500D01*
G37*
G36*
X113034423Y-144731435D02*
G01*
X113178858Y-144749145D01*
X113307537Y-144778662D01*
X113454597Y-144836383D01*
X113573647Y-144915094D01*
X113664684Y-145014795D01*
X113727711Y-145135485D01*
X113762725Y-145277165D01*
X113770603Y-145397199D01*
X113760681Y-145521153D01*
X113730914Y-145635336D01*
X113676517Y-145751535D01*
X113619783Y-145832562D01*
X113529065Y-145923946D01*
X113445150Y-145984603D01*
X113330257Y-146044321D01*
X113218004Y-146084132D01*
X113218004Y-146090849D01*
X113324250Y-146146414D01*
X113417808Y-146229812D01*
X113423778Y-146236174D01*
X113504922Y-146332010D01*
X113515980Y-146346693D01*
X113586839Y-146448007D01*
X113595970Y-146462098D01*
X114061252Y-147187500D01*
X113423778Y-147187500D01*
X113040928Y-146557353D01*
X112973487Y-146450750D01*
X112958496Y-146429125D01*
X112878506Y-146332650D01*
X112794243Y-146270978D01*
X112699598Y-146249607D01*
X112550000Y-146249607D01*
X112550000Y-147187500D01*
X111994958Y-147187500D01*
X111994958Y-145830730D01*
X112550000Y-145830730D01*
X112790579Y-145830730D01*
X112914427Y-145816133D01*
X113033956Y-145762204D01*
X113076954Y-145726927D01*
X113152087Y-145625330D01*
X113185146Y-145504332D01*
X113186863Y-145466198D01*
X113168368Y-145339623D01*
X113101935Y-145233034D01*
X112987189Y-145167051D01*
X112847153Y-145142624D01*
X112800349Y-145141355D01*
X112550000Y-145141355D01*
X112550000Y-145830730D01*
X111994958Y-145830730D01*
X111994958Y-144725532D01*
X112874232Y-144725532D01*
X113034423Y-144731435D01*
G37*
G36*
X115937037Y-145177381D02*
G01*
X115234839Y-145177381D01*
X115234839Y-147187500D01*
X114678576Y-147187500D01*
X114678576Y-145177381D01*
X113979431Y-145177381D01*
X113979431Y-144725532D01*
X115937037Y-144725532D01*
X115937037Y-145177381D01*
G37*
G36*
X117336444Y-144691834D02*
G01*
X117458861Y-144707977D01*
X117603001Y-144743289D01*
X117737272Y-144795417D01*
X117861674Y-144864361D01*
X117976208Y-144950121D01*
X118060729Y-145030835D01*
X118154488Y-145143806D01*
X118232355Y-145267481D01*
X118294331Y-145401859D01*
X118340416Y-145546941D01*
X118365842Y-145670713D01*
X118381097Y-145801335D01*
X118386183Y-145938808D01*
X118380907Y-146080020D01*
X118365078Y-146214230D01*
X118338698Y-146341437D01*
X118301766Y-146461640D01*
X118254282Y-146574841D01*
X118180088Y-146706494D01*
X118089406Y-146827206D01*
X118048517Y-146872426D01*
X117938163Y-146974452D01*
X117817762Y-147059186D01*
X117687313Y-147126627D01*
X117546817Y-147176776D01*
X117427186Y-147204444D01*
X117301124Y-147221045D01*
X117168632Y-147226578D01*
X117039345Y-147221216D01*
X116916184Y-147205131D01*
X116770846Y-147169943D01*
X116635078Y-147118000D01*
X116508881Y-147049301D01*
X116392255Y-146963846D01*
X116305844Y-146883417D01*
X116209975Y-146770920D01*
X116130354Y-146648286D01*
X116066983Y-146515514D01*
X116019861Y-146372606D01*
X115993862Y-146250981D01*
X115978263Y-146122868D01*
X115973063Y-145988267D01*
X115974153Y-145958958D01*
X116556804Y-145958958D01*
X116562836Y-146090291D01*
X116585121Y-146229947D01*
X116623827Y-146354994D01*
X116678954Y-146465432D01*
X116728384Y-146535371D01*
X116820853Y-146628069D01*
X116926679Y-146694282D01*
X117045862Y-146734009D01*
X117178402Y-146747252D01*
X117314453Y-146734391D01*
X117435620Y-146695808D01*
X117541904Y-146631504D01*
X117633304Y-146541477D01*
X117707035Y-146428324D01*
X117754269Y-146312974D01*
X117785374Y-146182371D01*
X117799198Y-146058287D01*
X117801832Y-145969338D01*
X117796100Y-145832195D01*
X117778905Y-145706987D01*
X117744356Y-145575996D01*
X117694205Y-145461251D01*
X117638799Y-145375828D01*
X117549765Y-145283130D01*
X117445695Y-145216918D01*
X117326588Y-145177190D01*
X117192446Y-145163948D01*
X117070271Y-145174379D01*
X116944810Y-145211845D01*
X116834462Y-145276560D01*
X116739226Y-145368523D01*
X116728384Y-145381934D01*
X116653318Y-145499743D01*
X116605228Y-145617289D01*
X116573560Y-145748334D01*
X116559485Y-145871403D01*
X116556804Y-145958958D01*
X115974153Y-145958958D01*
X115978349Y-145846120D01*
X115994205Y-145710937D01*
X116020633Y-145582719D01*
X116057632Y-145461466D01*
X116105202Y-145347177D01*
X116179531Y-145214111D01*
X116270376Y-145091927D01*
X116311340Y-145046100D01*
X116422418Y-144942491D01*
X116544229Y-144856442D01*
X116676774Y-144787955D01*
X116820052Y-144737028D01*
X116942402Y-144708931D01*
X117071622Y-144692072D01*
X117207711Y-144686453D01*
X117336444Y-144691834D01*
G37*
G36*
X120299825Y-147187500D02*
G01*
X119744783Y-147187500D01*
X119744783Y-144725532D01*
X120299825Y-144725532D01*
X120299825Y-147187500D01*
G37*
G36*
X121408688Y-147187500D02*
G01*
X120853646Y-147187500D01*
X120853646Y-144725532D01*
X121408688Y-144725532D01*
X121408688Y-147187500D01*
G37*
G36*
X124693143Y-147098351D02*
G01*
X124567208Y-147148315D01*
X124446751Y-147181373D01*
X124314745Y-147205416D01*
X124171191Y-147220442D01*
X124042740Y-147226077D01*
X123989113Y-147226578D01*
X123851088Y-147221388D01*
X123720637Y-147205818D01*
X123597762Y-147179867D01*
X123454821Y-147132831D01*
X123323716Y-147069576D01*
X123204448Y-146990102D01*
X123097016Y-146894408D01*
X123003610Y-146785208D01*
X122926035Y-146665216D01*
X122864291Y-146534430D01*
X122818379Y-146392852D01*
X122793049Y-146271818D01*
X122777850Y-146143877D01*
X122772784Y-146009028D01*
X122778489Y-145865201D01*
X122795606Y-145728339D01*
X122824132Y-145598442D01*
X122864070Y-145475510D01*
X122915418Y-145359542D01*
X122978177Y-145250539D01*
X123052347Y-145148501D01*
X123137927Y-145053428D01*
X123232600Y-144967418D01*
X123334046Y-144892876D01*
X123442267Y-144829802D01*
X123557262Y-144778196D01*
X123679030Y-144738059D01*
X123807572Y-144709389D01*
X123942889Y-144692187D01*
X124084979Y-144686453D01*
X124216312Y-144689651D01*
X124339659Y-144699247D01*
X124473472Y-144718527D01*
X124596415Y-144746514D01*
X124693143Y-144777433D01*
X124693143Y-145311714D01*
X124581650Y-145254137D01*
X124463553Y-145210702D01*
X124338852Y-145181408D01*
X124207549Y-145166256D01*
X124129553Y-145163948D01*
X124004195Y-145171590D01*
X123869827Y-145199823D01*
X123748258Y-145248860D01*
X123639485Y-145318701D01*
X123569626Y-145381324D01*
X123486592Y-145483551D01*
X123423951Y-145600563D01*
X123381705Y-145732359D01*
X123361727Y-145857095D01*
X123356524Y-145969338D01*
X123363587Y-146097537D01*
X123389679Y-146234296D01*
X123434997Y-146357265D01*
X123499541Y-146466442D01*
X123557414Y-146535982D01*
X123651965Y-146618303D01*
X123759840Y-146680405D01*
X123881038Y-146722287D01*
X124015560Y-146743951D01*
X124098412Y-146747252D01*
X124237901Y-146740269D01*
X124372131Y-146719319D01*
X124501102Y-146684403D01*
X124624813Y-146635520D01*
X124693143Y-146601317D01*
X124693143Y-147098351D01*
G37*
G36*
X125902861Y-145396452D02*
G01*
X126024076Y-145416190D01*
X126165126Y-145462978D01*
X126282668Y-145533160D01*
X126376702Y-145626735D01*
X126447227Y-145743705D01*
X126494244Y-145884068D01*
X126514079Y-146004693D01*
X126520691Y-146138476D01*
X126520691Y-147187500D01*
X126007170Y-147187500D01*
X126007170Y-146931655D01*
X126000453Y-146931655D01*
X125928082Y-147031883D01*
X125828564Y-147122606D01*
X125712800Y-147185105D01*
X125580791Y-147219378D01*
X125476552Y-147226578D01*
X125341237Y-147215131D01*
X125223117Y-147180790D01*
X125112039Y-147115782D01*
X125073552Y-147081864D01*
X124996272Y-146981997D01*
X124947614Y-146863286D01*
X124928294Y-146740336D01*
X124927006Y-146695961D01*
X124933323Y-146632458D01*
X125427093Y-146632458D01*
X125463157Y-146751641D01*
X125491207Y-146783278D01*
X125601560Y-146836171D01*
X125665841Y-146841896D01*
X125788542Y-146821910D01*
X125895884Y-146756142D01*
X125914358Y-146737482D01*
X125983606Y-146626947D01*
X126009986Y-146501992D01*
X126010834Y-146472479D01*
X126010834Y-146354631D01*
X125691486Y-146395542D01*
X125563679Y-146428107D01*
X125464273Y-146504116D01*
X125427093Y-146632458D01*
X124933323Y-146632458D01*
X124941809Y-146547155D01*
X124986218Y-146419399D01*
X125060233Y-146312692D01*
X125163855Y-146227034D01*
X125297082Y-146162425D01*
X125424981Y-146125893D01*
X125533339Y-146107336D01*
X126010834Y-146043832D01*
X125991294Y-145919345D01*
X125911915Y-145813753D01*
X125788267Y-145766236D01*
X125698203Y-145759289D01*
X125562115Y-145767792D01*
X125429009Y-145793300D01*
X125298882Y-145835813D01*
X125171735Y-145895331D01*
X125100418Y-145936976D01*
X125100418Y-145535197D01*
X125215690Y-145487545D01*
X125339795Y-145450795D01*
X125410607Y-145433836D01*
X125541595Y-145408806D01*
X125664214Y-145394165D01*
X125768423Y-145389872D01*
X125902861Y-145396452D01*
G37*
G36*
X128088119Y-145912552D02*
G01*
X127967777Y-145869103D01*
X127859752Y-145858818D01*
X127737850Y-145877194D01*
X127630402Y-145938573D01*
X127583147Y-145989488D01*
X127522496Y-146100256D01*
X127491491Y-146225026D01*
X127483618Y-146343640D01*
X127483618Y-147187500D01*
X126940788Y-147187500D01*
X126940788Y-145428951D01*
X127483618Y-145428951D01*
X127483618Y-145748909D01*
X127490335Y-145748909D01*
X127545905Y-145626893D01*
X127629077Y-145516447D01*
X127732002Y-145440362D01*
X127854677Y-145398638D01*
X127954396Y-145389872D01*
X128078747Y-145406923D01*
X128088119Y-145410633D01*
X128088119Y-145912552D01*
G37*
G36*
X129496179Y-147159412D02*
G01*
X129378289Y-147202899D01*
X129247051Y-147222380D01*
X129133478Y-147226578D01*
X128999097Y-147217295D01*
X128856317Y-147179582D01*
X128741533Y-147112860D01*
X128654745Y-147017128D01*
X128595953Y-146892385D01*
X128569077Y-146771705D01*
X128560118Y-146632458D01*
X128560118Y-145828899D01*
X128274965Y-145828899D01*
X128274965Y-145428951D01*
X128560118Y-145428951D01*
X128560118Y-145039994D01*
X129101116Y-144881847D01*
X129101116Y-145428951D01*
X129496179Y-145428951D01*
X129496179Y-145828899D01*
X129101116Y-145828899D01*
X129101116Y-146537203D01*
X129118359Y-146669438D01*
X129186267Y-146772287D01*
X129305692Y-146810488D01*
X129319103Y-146810755D01*
X129439793Y-146785646D01*
X129496179Y-146757632D01*
X129496179Y-147159412D01*
G37*
G36*
X108442446Y-149199084D02*
G01*
X108327192Y-149156129D01*
X108241557Y-149145961D01*
X108115225Y-149168952D01*
X108016968Y-149259496D01*
X107982514Y-149384668D01*
X107980217Y-149436610D01*
X107980217Y-149628951D01*
X108381996Y-149628951D01*
X108381996Y-150028899D01*
X107980217Y-150028899D01*
X107980217Y-151387500D01*
X107439219Y-151387500D01*
X107439219Y-150028899D01*
X107144296Y-150028899D01*
X107144296Y-149628951D01*
X107439219Y-149628951D01*
X107439219Y-149407911D01*
X107448569Y-149280039D01*
X107482152Y-149147852D01*
X107540160Y-149030548D01*
X107622592Y-148928128D01*
X107634613Y-148916372D01*
X107741431Y-148834895D01*
X107865881Y-148776696D01*
X107989237Y-148744869D01*
X108126092Y-148730865D01*
X108167673Y-148730137D01*
X108292555Y-148737796D01*
X108414110Y-148765667D01*
X108442446Y-148776543D01*
X108442446Y-149199084D01*
G37*
G36*
X109630394Y-149595865D02*
G01*
X109753389Y-149613843D01*
X109888822Y-149651238D01*
X110010989Y-149705892D01*
X110119889Y-149777806D01*
X110185119Y-149835336D01*
X110269784Y-149932945D01*
X110336931Y-150041674D01*
X110386562Y-150161522D01*
X110418676Y-150292490D01*
X110433274Y-150434578D01*
X110434247Y-150484412D01*
X110427971Y-150616196D01*
X110409143Y-150739066D01*
X110369980Y-150874742D01*
X110312743Y-150997582D01*
X110237431Y-151107584D01*
X110177181Y-151173787D01*
X110074334Y-151259697D01*
X109958135Y-151327832D01*
X109828584Y-151378193D01*
X109685681Y-151410779D01*
X109556395Y-151424357D01*
X109474372Y-151426578D01*
X109341577Y-151420586D01*
X109217965Y-151402607D01*
X109081752Y-151365212D01*
X108958762Y-151310558D01*
X108848996Y-151238645D01*
X108783165Y-151181114D01*
X108697671Y-151082904D01*
X108629865Y-150972373D01*
X108579747Y-150849519D01*
X108547318Y-150714343D01*
X108533806Y-150592285D01*
X108531595Y-150514942D01*
X108531921Y-150508225D01*
X109082363Y-150508225D01*
X109092336Y-150652997D01*
X109122255Y-150773231D01*
X109184487Y-150885122D01*
X109293392Y-150971004D01*
X109417856Y-151006338D01*
X109490859Y-151010755D01*
X109623458Y-150992616D01*
X109743484Y-150925601D01*
X109826168Y-150809207D01*
X109867320Y-150670139D01*
X109880656Y-150526536D01*
X109881037Y-150494792D01*
X109871436Y-150353890D01*
X109834571Y-150216332D01*
X109756616Y-150099312D01*
X109641028Y-150029100D01*
X109511999Y-150006173D01*
X109487806Y-150005696D01*
X109365672Y-150021208D01*
X109247379Y-150079541D01*
X109188608Y-150136976D01*
X109123865Y-150250721D01*
X109092738Y-150368859D01*
X109082466Y-150493333D01*
X109082363Y-150508225D01*
X108531921Y-150508225D01*
X108537960Y-150383879D01*
X108557057Y-150262029D01*
X108596777Y-150127970D01*
X108654830Y-150007177D01*
X108731216Y-149899650D01*
X108792324Y-149835336D01*
X108896767Y-149751917D01*
X109014089Y-149685757D01*
X109144292Y-149636856D01*
X109287374Y-149605214D01*
X109416448Y-149592030D01*
X109498186Y-149589872D01*
X109630394Y-149595865D01*
G37*
G36*
X111922907Y-150112552D02*
G01*
X111802565Y-150069103D01*
X111694540Y-150058818D01*
X111572638Y-150077194D01*
X111465189Y-150138573D01*
X111417935Y-150189488D01*
X111357284Y-150300256D01*
X111326279Y-150425026D01*
X111318406Y-150543640D01*
X111318406Y-151387500D01*
X110775576Y-151387500D01*
X110775576Y-149628951D01*
X111318406Y-149628951D01*
X111318406Y-149948909D01*
X111325123Y-149948909D01*
X111380693Y-149826893D01*
X111463865Y-149716447D01*
X111566789Y-149640362D01*
X111689465Y-149598638D01*
X111789184Y-149589872D01*
X111913535Y-149606923D01*
X111922907Y-149610633D01*
X111922907Y-150112552D01*
G37*
G36*
X113740684Y-151387500D02*
G01*
X113185642Y-151387500D01*
X113185642Y-148925532D01*
X113740684Y-148925532D01*
X113740684Y-151387500D01*
G37*
G36*
X115940091Y-151387500D02*
G01*
X115399093Y-151387500D01*
X115399093Y-150412971D01*
X115388832Y-150274561D01*
X115350923Y-150149276D01*
X115273395Y-150053821D01*
X115159383Y-150009275D01*
X115107223Y-150005696D01*
X114985990Y-150029443D01*
X114886760Y-150100686D01*
X114875192Y-150113773D01*
X114812999Y-150219026D01*
X114785633Y-150346720D01*
X114784212Y-150387325D01*
X114784212Y-151387500D01*
X114241382Y-151387500D01*
X114241382Y-149628951D01*
X114784212Y-149628951D01*
X114784212Y-149911662D01*
X114790929Y-149911662D01*
X114869969Y-149802304D01*
X114961460Y-149715571D01*
X115083935Y-149642980D01*
X115202403Y-149605270D01*
X115333321Y-149590186D01*
X115356351Y-149589872D01*
X115493165Y-149601168D01*
X115611737Y-149635057D01*
X115734300Y-149709189D01*
X115828360Y-149818621D01*
X115883085Y-149931583D01*
X115919569Y-150067138D01*
X115937811Y-150225285D01*
X115940091Y-150312831D01*
X115940091Y-151387500D01*
G37*
G36*
X117422035Y-151359412D02*
G01*
X117304145Y-151402899D01*
X117172907Y-151422380D01*
X117059334Y-151426578D01*
X116924953Y-151417295D01*
X116782173Y-151379582D01*
X116667389Y-151312860D01*
X116580601Y-151217128D01*
X116521809Y-151092385D01*
X116494933Y-150971705D01*
X116485974Y-150832458D01*
X116485974Y-150028899D01*
X116200820Y-150028899D01*
X116200820Y-149628951D01*
X116485974Y-149628951D01*
X116485974Y-149239994D01*
X117026972Y-149081847D01*
X117026972Y-149628951D01*
X117422035Y-149628951D01*
X117422035Y-150028899D01*
X117026972Y-150028899D01*
X117026972Y-150737203D01*
X117044215Y-150869438D01*
X117112123Y-150972287D01*
X117231547Y-151010488D01*
X117244959Y-151010755D01*
X117365649Y-150985646D01*
X117422035Y-150957632D01*
X117422035Y-151359412D01*
G37*
G36*
X118620165Y-149597901D02*
G01*
X118746003Y-149621986D01*
X118877294Y-149670380D01*
X118991872Y-149740630D01*
X119076780Y-149818239D01*
X119158863Y-149925922D01*
X119220785Y-150049149D01*
X119257815Y-150167144D01*
X119280033Y-150296559D01*
X119287439Y-150437395D01*
X119287439Y-150665762D01*
X118140109Y-150665762D01*
X118165439Y-150793589D01*
X118232976Y-150909294D01*
X118341418Y-150989002D01*
X118466927Y-151028672D01*
X118594474Y-151041529D01*
X118622488Y-151041896D01*
X118746020Y-151035994D01*
X118878970Y-151014794D01*
X119003143Y-150978177D01*
X119118538Y-150926142D01*
X119132345Y-150918553D01*
X119132345Y-151299572D01*
X119018773Y-151349060D01*
X118891234Y-151386393D01*
X118770799Y-151408718D01*
X118640103Y-151422113D01*
X118499146Y-151426578D01*
X118370623Y-151420839D01*
X118228714Y-151398800D01*
X118100243Y-151360231D01*
X117985211Y-151305134D01*
X117883616Y-151233507D01*
X117837858Y-151191495D01*
X117757966Y-151096812D01*
X117694604Y-150989078D01*
X117647771Y-150868293D01*
X117617467Y-150734455D01*
X117604840Y-150612954D01*
X117602774Y-150535703D01*
X117608976Y-150403888D01*
X117619797Y-150332370D01*
X118136445Y-150332370D01*
X118784299Y-150332370D01*
X118773544Y-150204336D01*
X118733811Y-150088443D01*
X118639707Y-149992417D01*
X118515429Y-149957097D01*
X118478385Y-149955626D01*
X118356569Y-149982645D01*
X118258448Y-150057054D01*
X118252460Y-150063703D01*
X118183371Y-150168022D01*
X118142799Y-150292910D01*
X118136445Y-150332370D01*
X117619797Y-150332370D01*
X117627580Y-150280929D01*
X117666277Y-150145067D01*
X117722835Y-150021955D01*
X117797253Y-149911595D01*
X117856787Y-149845106D01*
X117956163Y-149758366D01*
X118063783Y-149689573D01*
X118179645Y-149638725D01*
X118303751Y-149605824D01*
X118436100Y-149590869D01*
X118482049Y-149589872D01*
X118620165Y-149597901D01*
G37*
G36*
X120142900Y-151387500D02*
G01*
X119600070Y-151387500D01*
X119600070Y-148769216D01*
X120142900Y-148769216D01*
X120142900Y-151387500D01*
G37*
G36*
X121136968Y-151387500D02*
G01*
X120594139Y-151387500D01*
X120594139Y-148769216D01*
X121136968Y-148769216D01*
X121136968Y-151387500D01*
G37*
G36*
X121862980Y-149316320D02*
G01*
X121737958Y-149296323D01*
X121637666Y-149236331D01*
X121567062Y-149134944D01*
X121550349Y-149040326D01*
X121577977Y-148919597D01*
X121637666Y-148844931D01*
X121745048Y-148785853D01*
X121862980Y-148769216D01*
X121989071Y-148788145D01*
X122088905Y-148844931D01*
X122161301Y-148950342D01*
X122175611Y-149040326D01*
X122148177Y-149162621D01*
X122088905Y-149238773D01*
X121981959Y-149299281D01*
X121862980Y-149316320D01*
G37*
G36*
X122131037Y-151387500D02*
G01*
X121588207Y-151387500D01*
X121588207Y-149628951D01*
X122131037Y-149628951D01*
X122131037Y-151387500D01*
G37*
G36*
X124256560Y-149628951D02*
G01*
X123601989Y-151387500D01*
X122984055Y-151387500D01*
X122360625Y-149628951D01*
X122941312Y-149628951D01*
X123247227Y-150712779D01*
X123277438Y-150832642D01*
X123300120Y-150957556D01*
X123307066Y-151025409D01*
X123313783Y-151025409D01*
X123333818Y-150898175D01*
X123362211Y-150778033D01*
X123377286Y-150723159D01*
X123689917Y-149628951D01*
X124256560Y-149628951D01*
G37*
G36*
X124752373Y-149316320D02*
G01*
X124627351Y-149296323D01*
X124527059Y-149236331D01*
X124456455Y-149134944D01*
X124439742Y-149040326D01*
X124467370Y-148919597D01*
X124527059Y-148844931D01*
X124634441Y-148785853D01*
X124752373Y-148769216D01*
X124878463Y-148788145D01*
X124978298Y-148844931D01*
X125050694Y-148950342D01*
X125065004Y-149040326D01*
X125037570Y-149162621D01*
X124978298Y-149238773D01*
X124871352Y-149299281D01*
X124752373Y-149316320D01*
G37*
G36*
X125020430Y-151387500D02*
G01*
X124477600Y-151387500D01*
X124477600Y-149628951D01*
X125020430Y-149628951D01*
X125020430Y-151387500D01*
G37*
G36*
X125356874Y-151334377D02*
G01*
X125356874Y-150879474D01*
X125465423Y-150944846D01*
X125582097Y-150998341D01*
X125623709Y-151013197D01*
X125745282Y-151044753D01*
X125867862Y-151057118D01*
X125875280Y-151057161D01*
X126004118Y-151047391D01*
X126102425Y-151018082D01*
X126184036Y-150923446D01*
X126186079Y-150899624D01*
X126148221Y-150814139D01*
X126051134Y-150754300D01*
X125934755Y-150712331D01*
X125921686Y-150708504D01*
X125802541Y-150668433D01*
X125786131Y-150662098D01*
X125670240Y-150613030D01*
X125601117Y-150577224D01*
X125499943Y-150504700D01*
X125467394Y-150472199D01*
X125398716Y-150367147D01*
X125384962Y-150333592D01*
X125359617Y-150211721D01*
X125356874Y-150147356D01*
X125370962Y-150018521D01*
X125417043Y-149901208D01*
X125420988Y-149894565D01*
X125496245Y-149798089D01*
X125592568Y-149721153D01*
X125707668Y-149662382D01*
X125829438Y-149623643D01*
X125838033Y-149621624D01*
X125961418Y-149599919D01*
X126089011Y-149590368D01*
X126126239Y-149589872D01*
X126251188Y-149595214D01*
X126363155Y-149608801D01*
X126489928Y-149633262D01*
X126600070Y-149663145D01*
X126600070Y-150097897D01*
X126493214Y-150037142D01*
X126379030Y-149994094D01*
X126255501Y-149966937D01*
X126148221Y-149959289D01*
X126048081Y-149968449D01*
X125964428Y-149995926D01*
X125907642Y-150041721D01*
X125887492Y-150104614D01*
X125918022Y-150186435D01*
X125998622Y-150245664D01*
X126109753Y-150290239D01*
X126226912Y-150329242D01*
X126230653Y-150330539D01*
X126345671Y-150374760D01*
X126426047Y-150412360D01*
X126530407Y-150477438D01*
X126576257Y-150516774D01*
X126651523Y-150613518D01*
X126672732Y-150657213D01*
X126703036Y-150781918D01*
X126706316Y-150848333D01*
X126693343Y-150975926D01*
X126650651Y-151093439D01*
X126638538Y-151114558D01*
X126559617Y-151214392D01*
X126458409Y-151294077D01*
X126345432Y-151350579D01*
X126226187Y-151388546D01*
X126198901Y-151394827D01*
X126077918Y-151415385D01*
X125953106Y-151425462D01*
X125894208Y-151426578D01*
X125769362Y-151422166D01*
X125631689Y-151406319D01*
X125499359Y-151378947D01*
X125372372Y-151340049D01*
X125356874Y-151334377D01*
G37*
G36*
X127285171Y-149316320D02*
G01*
X127160150Y-149296323D01*
X127059857Y-149236331D01*
X126989254Y-149134944D01*
X126972541Y-149040326D01*
X127000168Y-148919597D01*
X127059857Y-148844931D01*
X127167239Y-148785853D01*
X127285171Y-148769216D01*
X127411262Y-148788145D01*
X127511096Y-148844931D01*
X127583492Y-148950342D01*
X127597802Y-149040326D01*
X127570368Y-149162621D01*
X127511096Y-149238773D01*
X127404150Y-149299281D01*
X127285171Y-149316320D01*
G37*
G36*
X127553228Y-151387500D02*
G01*
X127010398Y-151387500D01*
X127010398Y-149628951D01*
X127553228Y-149628951D01*
X127553228Y-151387500D01*
G37*
G36*
X128998852Y-149595865D02*
G01*
X129121847Y-149613843D01*
X129257280Y-149651238D01*
X129379446Y-149705892D01*
X129488347Y-149777806D01*
X129553577Y-149835336D01*
X129638241Y-149932945D01*
X129705389Y-150041674D01*
X129755020Y-150161522D01*
X129787134Y-150292490D01*
X129801731Y-150434578D01*
X129802705Y-150484412D01*
X129796429Y-150616196D01*
X129777600Y-150739066D01*
X129738438Y-150874742D01*
X129681201Y-150997582D01*
X129605889Y-151107584D01*
X129545639Y-151173787D01*
X129442792Y-151259697D01*
X129326593Y-151327832D01*
X129197042Y-151378193D01*
X129054138Y-151410779D01*
X128924852Y-151424357D01*
X128842830Y-151426578D01*
X128710035Y-151420586D01*
X128586423Y-151402607D01*
X128450210Y-151365212D01*
X128327220Y-151310558D01*
X128217454Y-151238645D01*
X128151623Y-151181114D01*
X128066128Y-151082904D01*
X127998322Y-150972373D01*
X127948205Y-150849519D01*
X127915776Y-150714343D01*
X127902264Y-150592285D01*
X127900053Y-150514942D01*
X127900379Y-150508225D01*
X128450820Y-150508225D01*
X128460793Y-150652997D01*
X128490713Y-150773231D01*
X128552944Y-150885122D01*
X128661850Y-150971004D01*
X128786314Y-151006338D01*
X128859317Y-151010755D01*
X128991916Y-150992616D01*
X129111942Y-150925601D01*
X129194626Y-150809207D01*
X129235777Y-150670139D01*
X129249113Y-150526536D01*
X129249494Y-150494792D01*
X129239894Y-150353890D01*
X129203029Y-150216332D01*
X129125074Y-150099312D01*
X129009485Y-150029100D01*
X128880456Y-150006173D01*
X128856264Y-150005696D01*
X128734130Y-150021208D01*
X128615837Y-150079541D01*
X128557066Y-150136976D01*
X128492323Y-150250721D01*
X128461196Y-150368859D01*
X128450924Y-150493333D01*
X128450820Y-150508225D01*
X127900379Y-150508225D01*
X127906418Y-150383879D01*
X127925515Y-150262029D01*
X127965235Y-150127970D01*
X128023288Y-150007177D01*
X128099674Y-149899650D01*
X128160782Y-149835336D01*
X128265224Y-149751917D01*
X128382547Y-149685757D01*
X128512749Y-149636856D01*
X128655832Y-149605214D01*
X128784906Y-149592030D01*
X128866644Y-149589872D01*
X128998852Y-149595865D01*
G37*
G36*
X131842743Y-151387500D02*
G01*
X131301745Y-151387500D01*
X131301745Y-150412971D01*
X131291484Y-150274561D01*
X131253575Y-150149276D01*
X131176047Y-150053821D01*
X131062035Y-150009275D01*
X131009875Y-150005696D01*
X130888642Y-150029443D01*
X130789412Y-150100686D01*
X130777844Y-150113773D01*
X130715650Y-150219026D01*
X130688285Y-150346720D01*
X130686864Y-150387325D01*
X130686864Y-151387500D01*
X130144034Y-151387500D01*
X130144034Y-149628951D01*
X130686864Y-149628951D01*
X130686864Y-149911662D01*
X130693580Y-149911662D01*
X130772621Y-149802304D01*
X130864111Y-149715571D01*
X130986587Y-149642980D01*
X131105054Y-149605270D01*
X131235972Y-149590186D01*
X131259003Y-149589872D01*
X131395817Y-149601168D01*
X131514389Y-149635057D01*
X131636952Y-149709189D01*
X131731011Y-149818621D01*
X131785737Y-149931583D01*
X131822221Y-150067138D01*
X131840463Y-150225285D01*
X131842743Y-150312831D01*
X131842743Y-151387500D01*
G37*
G36*
X98454134Y-154097618D02*
G01*
X98460851Y-154097618D01*
X98542174Y-153993033D01*
X98635475Y-153910085D01*
X98759466Y-153840662D01*
X98878720Y-153804598D01*
X99009953Y-153790173D01*
X99032990Y-153789872D01*
X99174069Y-153801004D01*
X99300247Y-153834401D01*
X99411524Y-153890062D01*
X99507899Y-153967988D01*
X99556280Y-154022513D01*
X99627895Y-154132475D01*
X99681920Y-154258799D01*
X99714227Y-154380100D01*
X99733611Y-154513422D01*
X99740073Y-154658766D01*
X99734825Y-154791361D01*
X99719083Y-154915519D01*
X99686339Y-155053371D01*
X99638483Y-155179073D01*
X99575514Y-155292624D01*
X99525139Y-155361575D01*
X99439680Y-155451635D01*
X99327118Y-155533154D01*
X99200706Y-155589312D01*
X99081330Y-155617262D01*
X98951779Y-155626578D01*
X98817466Y-155614716D01*
X98698229Y-155579128D01*
X98580420Y-155509404D01*
X98493491Y-155422975D01*
X98460851Y-155378672D01*
X98454134Y-155378672D01*
X98454134Y-155587500D01*
X97911305Y-155587500D01*
X97911305Y-154641669D01*
X98445586Y-154641669D01*
X98445586Y-154820577D01*
X98461710Y-154948033D01*
X98515138Y-155064105D01*
X98543283Y-155100235D01*
X98639704Y-155175786D01*
X98766098Y-155209784D01*
X98794242Y-155210755D01*
X98921325Y-155190748D01*
X99032642Y-155123919D01*
X99081228Y-155068483D01*
X99139631Y-154956674D01*
X99171688Y-154830737D01*
X99183409Y-154697611D01*
X99183810Y-154665483D01*
X99174686Y-154539629D01*
X99139653Y-154413004D01*
X99090387Y-154327817D01*
X98993331Y-154244336D01*
X98875790Y-154208677D01*
X98823552Y-154205696D01*
X98699863Y-154225649D01*
X98587397Y-154291766D01*
X98552442Y-154326596D01*
X98483257Y-154436920D01*
X98450699Y-154560225D01*
X98445586Y-154641669D01*
X97911305Y-154641669D01*
X97911305Y-152969216D01*
X98454134Y-152969216D01*
X98454134Y-154097618D01*
G37*
G36*
X101754466Y-153828951D02*
G01*
X101040055Y-155752974D01*
X100989450Y-155877046D01*
X100934261Y-155988914D01*
X100853546Y-156119088D01*
X100764684Y-156227566D01*
X100667673Y-156314349D01*
X100562515Y-156379435D01*
X100419610Y-156430285D01*
X100296120Y-156446556D01*
X100263974Y-156447234D01*
X100136331Y-156442617D01*
X100007061Y-156425252D01*
X99939131Y-156408155D01*
X99939131Y-155978288D01*
X100059478Y-156021168D01*
X100174825Y-156033243D01*
X100303806Y-156009577D01*
X100410281Y-155929778D01*
X100466695Y-155832964D01*
X100559508Y-155611313D01*
X99845097Y-153828951D01*
X100445935Y-153828951D01*
X100773831Y-154921327D01*
X100804421Y-155047143D01*
X100822069Y-155161296D01*
X100828785Y-155161296D01*
X100854567Y-155036145D01*
X100885572Y-154924380D01*
X101217131Y-153828951D01*
X101754466Y-153828951D01*
G37*
G36*
X105146999Y-155587500D02*
G01*
X104542498Y-155587500D01*
X104367254Y-155036732D01*
X103491643Y-155036732D01*
X103318231Y-155587500D01*
X102716783Y-155587500D01*
X103072486Y-154610528D01*
X103610101Y-154610528D01*
X104240247Y-154610528D01*
X103975854Y-153786819D01*
X103947077Y-153663904D01*
X103934333Y-153565169D01*
X103920900Y-153565169D01*
X103902975Y-153686176D01*
X103877547Y-153779492D01*
X103610101Y-154610528D01*
X103072486Y-154610528D01*
X103613154Y-153125532D01*
X104270778Y-153125532D01*
X105146999Y-155587500D01*
G37*
G36*
X105629989Y-155626578D02*
G01*
X105506952Y-155605360D01*
X105406507Y-155541704D01*
X105336947Y-155439847D01*
X105317358Y-155331655D01*
X105343208Y-155208987D01*
X105408949Y-155122217D01*
X105519666Y-155058374D01*
X105638538Y-155040396D01*
X105764628Y-155061156D01*
X105865683Y-155123438D01*
X105937275Y-155229891D01*
X105954222Y-155331655D01*
X105928717Y-155456097D01*
X105863852Y-155544146D01*
X105753145Y-155608466D01*
X105629989Y-155626578D01*
G37*
G36*
X107597260Y-153091834D02*
G01*
X107719678Y-153107977D01*
X107863817Y-153143289D01*
X107998088Y-153195417D01*
X108122490Y-153264361D01*
X108237024Y-153350121D01*
X108321545Y-153430835D01*
X108415304Y-153543806D01*
X108493171Y-153667481D01*
X108555147Y-153801859D01*
X108601232Y-153946941D01*
X108626658Y-154070713D01*
X108641914Y-154201335D01*
X108646999Y-154338808D01*
X108641723Y-154480020D01*
X108625895Y-154614230D01*
X108599515Y-154741437D01*
X108562582Y-154861640D01*
X108515098Y-154974841D01*
X108440904Y-155106494D01*
X108350222Y-155227206D01*
X108309333Y-155272426D01*
X108198980Y-155374452D01*
X108078579Y-155459186D01*
X107948130Y-155526627D01*
X107807634Y-155576776D01*
X107688002Y-155604444D01*
X107561941Y-155621045D01*
X107429448Y-155626578D01*
X107300162Y-155621216D01*
X107177000Y-155605131D01*
X107031662Y-155569943D01*
X106895895Y-155518000D01*
X106769697Y-155449301D01*
X106653071Y-155363846D01*
X106566660Y-155283417D01*
X106470791Y-155170920D01*
X106391171Y-155048286D01*
X106327799Y-154915514D01*
X106280677Y-154772606D01*
X106254678Y-154650981D01*
X106239079Y-154522868D01*
X106233880Y-154388267D01*
X106234970Y-154358958D01*
X106817620Y-154358958D01*
X106823652Y-154490291D01*
X106845937Y-154629947D01*
X106884644Y-154754994D01*
X106939771Y-154865432D01*
X106989201Y-154935371D01*
X107081669Y-155028069D01*
X107187495Y-155094282D01*
X107306678Y-155134009D01*
X107439218Y-155147252D01*
X107575269Y-155134391D01*
X107696436Y-155095808D01*
X107802720Y-155031504D01*
X107894120Y-154941477D01*
X107967851Y-154828324D01*
X108015085Y-154712974D01*
X108046190Y-154582371D01*
X108060015Y-154458287D01*
X108062648Y-154369338D01*
X108056916Y-154232195D01*
X108039722Y-154106987D01*
X108005173Y-153975996D01*
X107955021Y-153861251D01*
X107899616Y-153775828D01*
X107810582Y-153683130D01*
X107706511Y-153616918D01*
X107587405Y-153577190D01*
X107453262Y-153563948D01*
X107331087Y-153574379D01*
X107205626Y-153611845D01*
X107095278Y-153676560D01*
X107000042Y-153768523D01*
X106989201Y-153781934D01*
X106914134Y-153899743D01*
X106866045Y-154017289D01*
X106834376Y-154148334D01*
X106820301Y-154271403D01*
X106817620Y-154358958D01*
X106234970Y-154358958D01*
X106239165Y-154246120D01*
X106255022Y-154110937D01*
X106281450Y-153982719D01*
X106318449Y-153861466D01*
X106366019Y-153747177D01*
X106440347Y-153614111D01*
X106531193Y-153491927D01*
X106572156Y-153446100D01*
X106683234Y-153342491D01*
X106805045Y-153256442D01*
X106937590Y-153187955D01*
X107080868Y-153137028D01*
X107203218Y-153108931D01*
X107332438Y-153092072D01*
X107468527Y-153086453D01*
X107597260Y-153091834D01*
G37*
G36*
X110050785Y-155559412D02*
G01*
X109932895Y-155602899D01*
X109801657Y-155622380D01*
X109688084Y-155626578D01*
X109553703Y-155617295D01*
X109410923Y-155579582D01*
X109296139Y-155512860D01*
X109209351Y-155417128D01*
X109150559Y-155292385D01*
X109123683Y-155171705D01*
X109114724Y-155032458D01*
X109114724Y-154228899D01*
X108829570Y-154228899D01*
X108829570Y-153828951D01*
X109114724Y-153828951D01*
X109114724Y-153439994D01*
X109655722Y-153281847D01*
X109655722Y-153828951D01*
X110050785Y-153828951D01*
X110050785Y-154228899D01*
X109655722Y-154228899D01*
X109655722Y-154937203D01*
X109672965Y-155069438D01*
X109740873Y-155172287D01*
X109860297Y-155210488D01*
X109873709Y-155210755D01*
X109994399Y-155185646D01*
X110050785Y-155157632D01*
X110050785Y-155559412D01*
G37*
G36*
X111411217Y-155559412D02*
G01*
X111293327Y-155602899D01*
X111162090Y-155622380D01*
X111048517Y-155626578D01*
X110914135Y-155617295D01*
X110771355Y-155579582D01*
X110656571Y-155512860D01*
X110569783Y-155417128D01*
X110510992Y-155292385D01*
X110484115Y-155171705D01*
X110475157Y-155032458D01*
X110475157Y-154228899D01*
X110190003Y-154228899D01*
X110190003Y-153828951D01*
X110475157Y-153828951D01*
X110475157Y-153439994D01*
X111016155Y-153281847D01*
X111016155Y-153828951D01*
X111411217Y-153828951D01*
X111411217Y-154228899D01*
X111016155Y-154228899D01*
X111016155Y-154937203D01*
X111033398Y-155069438D01*
X111101306Y-155172287D01*
X111220730Y-155210488D01*
X111234141Y-155210755D01*
X111354832Y-155185646D01*
X111411217Y-155157632D01*
X111411217Y-155559412D01*
G37*
G36*
X112553768Y-153796452D02*
G01*
X112674983Y-153816190D01*
X112816033Y-153862978D01*
X112933575Y-153933160D01*
X113027609Y-154026735D01*
X113098134Y-154143705D01*
X113145151Y-154284068D01*
X113164986Y-154404693D01*
X113171598Y-154538476D01*
X113171598Y-155587500D01*
X112658077Y-155587500D01*
X112658077Y-155331655D01*
X112651360Y-155331655D01*
X112578989Y-155431883D01*
X112479471Y-155522606D01*
X112363707Y-155585105D01*
X112231698Y-155619378D01*
X112127459Y-155626578D01*
X111992144Y-155615131D01*
X111874024Y-155580790D01*
X111762946Y-155515782D01*
X111724459Y-155481864D01*
X111647179Y-155381997D01*
X111598521Y-155263286D01*
X111579201Y-155140336D01*
X111577913Y-155095961D01*
X111584230Y-155032458D01*
X112078000Y-155032458D01*
X112114064Y-155151641D01*
X112142114Y-155183278D01*
X112252467Y-155236171D01*
X112316748Y-155241896D01*
X112439449Y-155221910D01*
X112546791Y-155156142D01*
X112565265Y-155137482D01*
X112634513Y-155026947D01*
X112660893Y-154901992D01*
X112661741Y-154872479D01*
X112661741Y-154754631D01*
X112342393Y-154795542D01*
X112214586Y-154828107D01*
X112115181Y-154904116D01*
X112078000Y-155032458D01*
X111584230Y-155032458D01*
X111592716Y-154947155D01*
X111637125Y-154819399D01*
X111711141Y-154712692D01*
X111814762Y-154627034D01*
X111947989Y-154562425D01*
X112075888Y-154525893D01*
X112184246Y-154507336D01*
X112661741Y-154443832D01*
X112642201Y-154319345D01*
X112562822Y-154213753D01*
X112439174Y-154166236D01*
X112349110Y-154159289D01*
X112213023Y-154167792D01*
X112079916Y-154193300D01*
X111949789Y-154235813D01*
X111822643Y-154295331D01*
X111751325Y-154336976D01*
X111751325Y-153935197D01*
X111866597Y-153887545D01*
X111990703Y-153850795D01*
X112061514Y-153833836D01*
X112192502Y-153808806D01*
X112315121Y-153794165D01*
X112419330Y-153789872D01*
X112553768Y-153796452D01*
G37*
G36*
X115265980Y-153828951D02*
G01*
X114611409Y-155587500D01*
X113993475Y-155587500D01*
X113370045Y-153828951D01*
X113950732Y-153828951D01*
X114256647Y-154912779D01*
X114286858Y-155032642D01*
X114309540Y-155157556D01*
X114316486Y-155225409D01*
X114323203Y-155225409D01*
X114343238Y-155098175D01*
X114371631Y-154978033D01*
X114386706Y-154923159D01*
X114699337Y-153828951D01*
X115265980Y-153828951D01*
G37*
G36*
X115761793Y-153516320D02*
G01*
X115636771Y-153496323D01*
X115536479Y-153436331D01*
X115465875Y-153334944D01*
X115449162Y-153240326D01*
X115476790Y-153119597D01*
X115536479Y-153044931D01*
X115643861Y-152985853D01*
X115761793Y-152969216D01*
X115887883Y-152988145D01*
X115987718Y-153044931D01*
X116060114Y-153150342D01*
X116074424Y-153240326D01*
X116046990Y-153362621D01*
X115987718Y-153438773D01*
X115880772Y-153499281D01*
X115761793Y-153516320D01*
G37*
G36*
X116029850Y-155587500D02*
G01*
X115487020Y-155587500D01*
X115487020Y-153828951D01*
X116029850Y-153828951D01*
X116029850Y-155587500D01*
G37*
G36*
X117326273Y-153796452D02*
G01*
X117447488Y-153816190D01*
X117588539Y-153862978D01*
X117706081Y-153933160D01*
X117800114Y-154026735D01*
X117870639Y-154143705D01*
X117917656Y-154284068D01*
X117937491Y-154404693D01*
X117944103Y-154538476D01*
X117944103Y-155587500D01*
X117430582Y-155587500D01*
X117430582Y-155331655D01*
X117423866Y-155331655D01*
X117351494Y-155431883D01*
X117251976Y-155522606D01*
X117136212Y-155585105D01*
X117004203Y-155619378D01*
X116899965Y-155626578D01*
X116764650Y-155615131D01*
X116646529Y-155580790D01*
X116535451Y-155515782D01*
X116496964Y-155481864D01*
X116419684Y-155381997D01*
X116371026Y-155263286D01*
X116351706Y-155140336D01*
X116350418Y-155095961D01*
X116356735Y-155032458D01*
X116850506Y-155032458D01*
X116886570Y-155151641D01*
X116914619Y-155183278D01*
X117024972Y-155236171D01*
X117089253Y-155241896D01*
X117211954Y-155221910D01*
X117319296Y-155156142D01*
X117337770Y-155137482D01*
X117407018Y-155026947D01*
X117433398Y-154901992D01*
X117434246Y-154872479D01*
X117434246Y-154754631D01*
X117114898Y-154795542D01*
X116987091Y-154828107D01*
X116887686Y-154904116D01*
X116850506Y-155032458D01*
X116356735Y-155032458D01*
X116365221Y-154947155D01*
X116409631Y-154819399D01*
X116483646Y-154712692D01*
X116587267Y-154627034D01*
X116720495Y-154562425D01*
X116848393Y-154525893D01*
X116956751Y-154507336D01*
X117434246Y-154443832D01*
X117414707Y-154319345D01*
X117335328Y-154213753D01*
X117211680Y-154166236D01*
X117121615Y-154159289D01*
X116985528Y-154167792D01*
X116852421Y-154193300D01*
X116722294Y-154235813D01*
X116595148Y-154295331D01*
X116523831Y-154336976D01*
X116523831Y-153935197D01*
X116639102Y-153887545D01*
X116763208Y-153850795D01*
X116834019Y-153833836D01*
X116965007Y-153808806D01*
X117087626Y-153794165D01*
X117191835Y-153789872D01*
X117326273Y-153796452D01*
G37*
G36*
X120062910Y-155587500D02*
G01*
X119521912Y-155587500D01*
X119521912Y-154612971D01*
X119511651Y-154474561D01*
X119473742Y-154349276D01*
X119396214Y-154253821D01*
X119282202Y-154209275D01*
X119230041Y-154205696D01*
X119108809Y-154229443D01*
X119009579Y-154300686D01*
X118998011Y-154313773D01*
X118935817Y-154419026D01*
X118908452Y-154546720D01*
X118907030Y-154587325D01*
X118907030Y-155587500D01*
X118364201Y-155587500D01*
X118364201Y-153828951D01*
X118907030Y-153828951D01*
X118907030Y-154111662D01*
X118913747Y-154111662D01*
X118992787Y-154002304D01*
X119084278Y-153915571D01*
X119206754Y-153842980D01*
X119325221Y-153805270D01*
X119456139Y-153790186D01*
X119479169Y-153789872D01*
X119615983Y-153801168D01*
X119734556Y-153835057D01*
X119857118Y-153909189D01*
X119951178Y-154018621D01*
X120005904Y-154131583D01*
X120042387Y-154267138D01*
X120060629Y-154425285D01*
X120062910Y-154512831D01*
X120062910Y-155587500D01*
G37*
G36*
X120756559Y-153516320D02*
G01*
X120631537Y-153496323D01*
X120531245Y-153436331D01*
X120460641Y-153334944D01*
X120443928Y-153240326D01*
X120471556Y-153119597D01*
X120531245Y-153044931D01*
X120638627Y-152985853D01*
X120756559Y-152969216D01*
X120882650Y-152988145D01*
X120982484Y-153044931D01*
X121054880Y-153150342D01*
X121069190Y-153240326D01*
X121041756Y-153362621D01*
X120982484Y-153438773D01*
X120875538Y-153499281D01*
X120756559Y-153516320D01*
G37*
G36*
X121024616Y-155587500D02*
G01*
X120481786Y-155587500D01*
X120481786Y-153828951D01*
X121024616Y-153828951D01*
X121024616Y-155587500D01*
G37*
G36*
X124114898Y-153828951D02*
G01*
X123460328Y-155587500D01*
X122842393Y-155587500D01*
X122218963Y-153828951D01*
X122799651Y-153828951D01*
X123105565Y-154912779D01*
X123135777Y-155032642D01*
X123158459Y-155157556D01*
X123165404Y-155225409D01*
X123172121Y-155225409D01*
X123192157Y-155098175D01*
X123220550Y-154978033D01*
X123235624Y-154923159D01*
X123548255Y-153828951D01*
X124114898Y-153828951D01*
G37*
G36*
X124368300Y-155626578D02*
G01*
X124245263Y-155605360D01*
X124144818Y-155541704D01*
X124075258Y-155439847D01*
X124055670Y-155331655D01*
X124081519Y-155208987D01*
X124147261Y-155122217D01*
X124257977Y-155058374D01*
X124376849Y-155040396D01*
X124502939Y-155061156D01*
X124603995Y-155123438D01*
X124675586Y-155229891D01*
X124692533Y-155331655D01*
X124667028Y-155456097D01*
X124602163Y-155544146D01*
X124491456Y-155608466D01*
X124368300Y-155626578D01*
G37*
G36*
X126274005Y-153086453D02*
G01*
X126274005Y-155587500D01*
X125733007Y-155587500D01*
X125733007Y-153694007D01*
X125631172Y-153766284D01*
X125627372Y-153768501D01*
X125514439Y-153824266D01*
X125497313Y-153831393D01*
X125377996Y-153872706D01*
X125355041Y-153879021D01*
X125231667Y-153904169D01*
X125209106Y-153907109D01*
X125209106Y-153450375D01*
X125326014Y-153413371D01*
X125451379Y-153366026D01*
X125571974Y-153312120D01*
X125607222Y-153294670D01*
X125720864Y-153233669D01*
X125827470Y-153168971D01*
X125936610Y-153093533D01*
X125946109Y-153086453D01*
X126274005Y-153086453D01*
G37*
G36*
X127328524Y-155626578D02*
G01*
X127205486Y-155605360D01*
X127105041Y-155541704D01*
X127035481Y-155439847D01*
X127015893Y-155331655D01*
X127041742Y-155208987D01*
X127107484Y-155122217D01*
X127218201Y-155058374D01*
X127337072Y-155040396D01*
X127463163Y-155061156D01*
X127564218Y-155123438D01*
X127635809Y-155229891D01*
X127652756Y-155331655D01*
X127627251Y-155456097D01*
X127562386Y-155544146D01*
X127451680Y-155608466D01*
X127328524Y-155626578D01*
G37*
G36*
X129004804Y-153097460D02*
G01*
X129143138Y-153130481D01*
X129266382Y-153185516D01*
X129374535Y-153262565D01*
X129467596Y-153361628D01*
X129545567Y-153482706D01*
X129608446Y-153625797D01*
X129656234Y-153790903D01*
X129679709Y-153913203D01*
X129696477Y-154045287D01*
X129706538Y-154187156D01*
X129709891Y-154338808D01*
X129706228Y-154490114D01*
X129695237Y-154632319D01*
X129676919Y-154765422D01*
X129651273Y-154889423D01*
X129608912Y-155031625D01*
X129555103Y-155159605D01*
X129489844Y-155273363D01*
X129475418Y-155294408D01*
X129397181Y-155390102D01*
X129290191Y-155483525D01*
X129168905Y-155553592D01*
X129033321Y-155600303D01*
X128909414Y-155621388D01*
X128803140Y-155626578D01*
X128646004Y-155615754D01*
X128504324Y-155583280D01*
X128378100Y-155529157D01*
X128267332Y-155453385D01*
X128172020Y-155355964D01*
X128092164Y-155236894D01*
X128027764Y-155096175D01*
X127978820Y-154933806D01*
X127954778Y-154813534D01*
X127937604Y-154683639D01*
X127927300Y-154544122D01*
X127923866Y-154394984D01*
X127924188Y-154381550D01*
X128475244Y-154381550D01*
X128478276Y-154529738D01*
X128487373Y-154663350D01*
X128508935Y-154818826D01*
X128541278Y-154948389D01*
X128596867Y-155073904D01*
X128685811Y-155171076D01*
X128820237Y-155210755D01*
X128951332Y-155169849D01*
X129038072Y-155069671D01*
X129092284Y-154940275D01*
X129123825Y-154806705D01*
X129144853Y-154646420D01*
X129153724Y-154508676D01*
X129156681Y-154355905D01*
X129153783Y-154203025D01*
X129145089Y-154065182D01*
X129130599Y-153942377D01*
X129102263Y-153802028D01*
X129052353Y-153664185D01*
X128971209Y-153553911D01*
X128847240Y-153501280D01*
X128826954Y-153500444D01*
X128707427Y-153531421D01*
X128612630Y-153624350D01*
X128552524Y-153749116D01*
X128516803Y-153879905D01*
X128492074Y-154038229D01*
X128480739Y-154175041D01*
X128475587Y-154327342D01*
X128475244Y-154381550D01*
X127924188Y-154381550D01*
X127927577Y-154240061D01*
X127938711Y-154094641D01*
X127957268Y-153958724D01*
X127983247Y-153832309D01*
X128026160Y-153687654D01*
X128080670Y-153557846D01*
X128146778Y-153442886D01*
X128161392Y-153421676D01*
X128241027Y-153325103D01*
X128350364Y-153230821D01*
X128474727Y-153160110D01*
X128589842Y-153119189D01*
X128715393Y-153094637D01*
X128851378Y-153086453D01*
X129004804Y-153097460D01*
G37*
G36*
X132051570Y-156134603D02*
G01*
X131608880Y-156134603D01*
X131509688Y-156018011D01*
X131420252Y-155896524D01*
X131340573Y-155770143D01*
X131270651Y-155638867D01*
X131210485Y-155502697D01*
X131160076Y-155361632D01*
X131119424Y-155215673D01*
X131088528Y-155064820D01*
X131067389Y-154909072D01*
X131056006Y-154748430D01*
X131053838Y-154638616D01*
X131058716Y-154479748D01*
X131073351Y-154324401D01*
X131097742Y-154172575D01*
X131131890Y-154024269D01*
X131175795Y-153879484D01*
X131229456Y-153738219D01*
X131292874Y-153600474D01*
X131366049Y-153466250D01*
X131448980Y-153335547D01*
X131541667Y-153208364D01*
X131608880Y-153125532D01*
X132048517Y-153125532D01*
X131955545Y-153255659D01*
X131871717Y-153388212D01*
X131797035Y-153523191D01*
X131731497Y-153660595D01*
X131675104Y-153800425D01*
X131627856Y-153942681D01*
X131589753Y-154087363D01*
X131560794Y-154234470D01*
X131540981Y-154384004D01*
X131530312Y-154535962D01*
X131528279Y-154638616D01*
X131532879Y-154792042D01*
X131546676Y-154942741D01*
X131569673Y-155090715D01*
X131601867Y-155235962D01*
X131643260Y-155378482D01*
X131693852Y-155518277D01*
X131753642Y-155655345D01*
X131822630Y-155789687D01*
X131900817Y-155921302D01*
X131988203Y-156050192D01*
X132051570Y-156134603D01*
G37*
G36*
X132811776Y-155137482D02*
G01*
X133855914Y-155137482D01*
X133855914Y-155587500D01*
X132217044Y-155587500D01*
X132217044Y-155401875D01*
X132224548Y-155276777D01*
X132249850Y-155150839D01*
X132280547Y-155063599D01*
X132337485Y-154946693D01*
X132405104Y-154840066D01*
X132439916Y-154794321D01*
X132521225Y-154701717D01*
X132615325Y-154612359D01*
X132650575Y-154583051D01*
X132748683Y-154506298D01*
X132848610Y-154431585D01*
X132867951Y-154417576D01*
X132969770Y-154342319D01*
X133057850Y-154270420D01*
X133149871Y-154182359D01*
X133195237Y-154129980D01*
X133263358Y-154024880D01*
X133278890Y-153989541D01*
X133305401Y-153867403D01*
X133306367Y-153837500D01*
X133289304Y-153714498D01*
X133222703Y-153605048D01*
X133217219Y-153599973D01*
X133104409Y-153539523D01*
X132977907Y-153520082D01*
X132944277Y-153519373D01*
X132806441Y-153532317D01*
X132671293Y-153571148D01*
X132557591Y-153625037D01*
X132445865Y-153697945D01*
X132336113Y-153789872D01*
X132336113Y-153299555D01*
X132459453Y-153227133D01*
X132588589Y-153169696D01*
X132723521Y-153127242D01*
X132864250Y-153099772D01*
X132985951Y-153088326D01*
X133060903Y-153086453D01*
X133184814Y-153092225D01*
X133309621Y-153111688D01*
X133396127Y-153135301D01*
X133509226Y-153181944D01*
X133614346Y-153247728D01*
X133647697Y-153275130D01*
X133733572Y-153368877D01*
X133797713Y-153479529D01*
X133804623Y-153495560D01*
X133841772Y-153614554D01*
X133858118Y-153745002D01*
X133858967Y-153784377D01*
X133851582Y-153906737D01*
X133826916Y-154027084D01*
X133806455Y-154086627D01*
X133754379Y-154197474D01*
X133683798Y-154306122D01*
X133667847Y-154326596D01*
X133580656Y-154424028D01*
X133488626Y-154507943D01*
X133467568Y-154525043D01*
X133366672Y-154602531D01*
X133262738Y-154677914D01*
X133232484Y-154699066D01*
X133131829Y-154771337D01*
X133073726Y-154814471D01*
X132977148Y-154892815D01*
X132938782Y-154928044D01*
X132857252Y-155020071D01*
X132845970Y-155036732D01*
X132811776Y-155137482D01*
G37*
G36*
X135286730Y-153097460D02*
G01*
X135425064Y-153130481D01*
X135548308Y-153185516D01*
X135656461Y-153262565D01*
X135749522Y-153361628D01*
X135827493Y-153482706D01*
X135890372Y-153625797D01*
X135938160Y-153790903D01*
X135961635Y-153913203D01*
X135978403Y-154045287D01*
X135988464Y-154187156D01*
X135991817Y-154338808D01*
X135988154Y-154490114D01*
X135977163Y-154632319D01*
X135958845Y-154765422D01*
X135933199Y-154889423D01*
X135890838Y-155031625D01*
X135837029Y-155159605D01*
X135771770Y-155273363D01*
X135757344Y-155294408D01*
X135679107Y-155390102D01*
X135572118Y-155483525D01*
X135450831Y-155553592D01*
X135315247Y-155600303D01*
X135191340Y-155621388D01*
X135085066Y-155626578D01*
X134927930Y-155615754D01*
X134786250Y-155583280D01*
X134660026Y-155529157D01*
X134549258Y-155453385D01*
X134453946Y-155355964D01*
X134374090Y-155236894D01*
X134309690Y-155096175D01*
X134260746Y-154933806D01*
X134236704Y-154813534D01*
X134219530Y-154683639D01*
X134209226Y-154544122D01*
X134205792Y-154394984D01*
X134206114Y-154381550D01*
X134757170Y-154381550D01*
X134760202Y-154529738D01*
X134769299Y-154663350D01*
X134790861Y-154818826D01*
X134823204Y-154948389D01*
X134878793Y-155073904D01*
X134967737Y-155171076D01*
X135102163Y-155210755D01*
X135233258Y-155169849D01*
X135319998Y-155069671D01*
X135374210Y-154940275D01*
X135405752Y-154806705D01*
X135426779Y-154646420D01*
X135435650Y-154508676D01*
X135438607Y-154355905D01*
X135435709Y-154203025D01*
X135427015Y-154065182D01*
X135412525Y-153942377D01*
X135384189Y-153802028D01*
X135334279Y-153664185D01*
X135253136Y-153553911D01*
X135129166Y-153501280D01*
X135108880Y-153500444D01*
X134989353Y-153531421D01*
X134894556Y-153624350D01*
X134834450Y-153749116D01*
X134798729Y-153879905D01*
X134774000Y-154038229D01*
X134762665Y-154175041D01*
X134757513Y-154327342D01*
X134757170Y-154381550D01*
X134206114Y-154381550D01*
X134209503Y-154240061D01*
X134220637Y-154094641D01*
X134239194Y-153958724D01*
X134265173Y-153832309D01*
X134308086Y-153687654D01*
X134362596Y-153557846D01*
X134428704Y-153442886D01*
X134443318Y-153421676D01*
X134522953Y-153325103D01*
X134632290Y-153230821D01*
X134756653Y-153160110D01*
X134871768Y-153119189D01*
X134997319Y-153094637D01*
X135133304Y-153086453D01*
X135286730Y-153097460D01*
G37*
G36*
X136836898Y-155137482D02*
G01*
X137881036Y-155137482D01*
X137881036Y-155587500D01*
X136242166Y-155587500D01*
X136242166Y-155401875D01*
X136249670Y-155276777D01*
X136274972Y-155150839D01*
X136305670Y-155063599D01*
X136362607Y-154946693D01*
X136430226Y-154840066D01*
X136465038Y-154794321D01*
X136546347Y-154701717D01*
X136640447Y-154612359D01*
X136675697Y-154583051D01*
X136773805Y-154506298D01*
X136873732Y-154431585D01*
X136893074Y-154417576D01*
X136994892Y-154342319D01*
X137082972Y-154270420D01*
X137174993Y-154182359D01*
X137220359Y-154129980D01*
X137288480Y-154024880D01*
X137304012Y-153989541D01*
X137330523Y-153867403D01*
X137331489Y-153837500D01*
X137314426Y-153714498D01*
X137247826Y-153605048D01*
X137242341Y-153599973D01*
X137129531Y-153539523D01*
X137003029Y-153520082D01*
X136969399Y-153519373D01*
X136831563Y-153532317D01*
X136696415Y-153571148D01*
X136582713Y-153625037D01*
X136470987Y-153697945D01*
X136361235Y-153789872D01*
X136361235Y-153299555D01*
X136484575Y-153227133D01*
X136613711Y-153169696D01*
X136748644Y-153127242D01*
X136889372Y-153099772D01*
X137011073Y-153088326D01*
X137086025Y-153086453D01*
X137209936Y-153092225D01*
X137334743Y-153111688D01*
X137421249Y-153135301D01*
X137534348Y-153181944D01*
X137639468Y-153247728D01*
X137672819Y-153275130D01*
X137758694Y-153368877D01*
X137822835Y-153479529D01*
X137829745Y-153495560D01*
X137866894Y-153614554D01*
X137883240Y-153745002D01*
X137884089Y-153784377D01*
X137876704Y-153906737D01*
X137852038Y-154027084D01*
X137831577Y-154086627D01*
X137779501Y-154197474D01*
X137708920Y-154306122D01*
X137692969Y-154326596D01*
X137605778Y-154424028D01*
X137513749Y-154507943D01*
X137492690Y-154525043D01*
X137391794Y-154602531D01*
X137287860Y-154677914D01*
X137257606Y-154699066D01*
X137156951Y-154771337D01*
X137098848Y-154814471D01*
X137002270Y-154892815D01*
X136963904Y-154928044D01*
X136882374Y-155020071D01*
X136871092Y-155036732D01*
X136836898Y-155137482D01*
G37*
G36*
X139747662Y-154674031D02*
G01*
X140042585Y-154674031D01*
X140042585Y-155079474D01*
X139747662Y-155079474D01*
X139747662Y-155587500D01*
X139253070Y-155587500D01*
X139253070Y-155079474D01*
X138179623Y-155079474D01*
X138179623Y-154674031D01*
X138665666Y-154674031D01*
X139253070Y-154674031D01*
X139253070Y-153816128D01*
X139190483Y-153928022D01*
X139126816Y-154034309D01*
X139122400Y-154041442D01*
X139054959Y-154147246D01*
X138984298Y-154251708D01*
X138974633Y-154265535D01*
X138901969Y-154367672D01*
X138828231Y-154466857D01*
X138818318Y-154479858D01*
X138740771Y-154579998D01*
X138665666Y-154674031D01*
X138179623Y-154674031D01*
X138179623Y-154655102D01*
X138260472Y-154563091D01*
X138342963Y-154466346D01*
X138427096Y-154364868D01*
X138474546Y-154306446D01*
X138559887Y-154199102D01*
X138634285Y-154102225D01*
X138707310Y-154003975D01*
X138770080Y-153916878D01*
X138839994Y-153816586D01*
X138915729Y-153703393D01*
X138988372Y-153589812D01*
X139035083Y-153513878D01*
X139101222Y-153400952D01*
X139161565Y-153290925D01*
X139221815Y-153172071D01*
X139243911Y-153125532D01*
X139747662Y-153125532D01*
X139747662Y-154674031D01*
G37*
G36*
X140595795Y-156134603D02*
G01*
X140156158Y-156134603D01*
X140250003Y-156008154D01*
X140334617Y-155878850D01*
X140410001Y-155746690D01*
X140476154Y-155611676D01*
X140533077Y-155473806D01*
X140580768Y-155333081D01*
X140619230Y-155189502D01*
X140648460Y-155043067D01*
X140668460Y-154893777D01*
X140679229Y-154741632D01*
X140681280Y-154638616D01*
X140676665Y-154485559D01*
X140662819Y-154334820D01*
X140639742Y-154186399D01*
X140607435Y-154040297D01*
X140565897Y-153896514D01*
X140515128Y-153755048D01*
X140455129Y-153615902D01*
X140385899Y-153479073D01*
X140307438Y-153344563D01*
X140219747Y-153212371D01*
X140156158Y-153125532D01*
X140598848Y-153125532D01*
X140698368Y-153250679D01*
X140788098Y-153379282D01*
X140868040Y-153511341D01*
X140938193Y-153646857D01*
X140998557Y-153785828D01*
X141049133Y-153928256D01*
X141089919Y-154074140D01*
X141120917Y-154223480D01*
X141142126Y-154376276D01*
X141153547Y-154532528D01*
X141155722Y-154638616D01*
X141150801Y-154801380D01*
X141136037Y-154959485D01*
X141111431Y-155112933D01*
X141076982Y-155261722D01*
X141032691Y-155405852D01*
X140978558Y-155545325D01*
X140914582Y-155680139D01*
X140840763Y-155810295D01*
X140757102Y-155935792D01*
X140663599Y-156056632D01*
X140595795Y-156134603D01*
G37*
D11*
X91014819Y-128883333D02*
X91729104Y-128883333D01*
X91729104Y-128883333D02*
X91871961Y-128930952D01*
X91871961Y-128930952D02*
X91967200Y-129026190D01*
X91967200Y-129026190D02*
X92014819Y-129169047D01*
X92014819Y-129169047D02*
X92014819Y-129264285D01*
X91110057Y-128454761D02*
X91062438Y-128407142D01*
X91062438Y-128407142D02*
X91014819Y-128311904D01*
X91014819Y-128311904D02*
X91014819Y-128073809D01*
X91014819Y-128073809D02*
X91062438Y-127978571D01*
X91062438Y-127978571D02*
X91110057Y-127930952D01*
X91110057Y-127930952D02*
X91205295Y-127883333D01*
X91205295Y-127883333D02*
X91300533Y-127883333D01*
X91300533Y-127883333D02*
X91443390Y-127930952D01*
X91443390Y-127930952D02*
X92014819Y-128502380D01*
X92014819Y-128502380D02*
X92014819Y-127883333D01*
X91004819Y-111083333D02*
X91719104Y-111083333D01*
X91719104Y-111083333D02*
X91861961Y-111130952D01*
X91861961Y-111130952D02*
X91957200Y-111226190D01*
X91957200Y-111226190D02*
X92004819Y-111369047D01*
X92004819Y-111369047D02*
X92004819Y-111464285D01*
X91004819Y-110702380D02*
X91004819Y-110083333D01*
X91004819Y-110083333D02*
X91385771Y-110416666D01*
X91385771Y-110416666D02*
X91385771Y-110273809D01*
X91385771Y-110273809D02*
X91433390Y-110178571D01*
X91433390Y-110178571D02*
X91481009Y-110130952D01*
X91481009Y-110130952D02*
X91576247Y-110083333D01*
X91576247Y-110083333D02*
X91814342Y-110083333D01*
X91814342Y-110083333D02*
X91909580Y-110130952D01*
X91909580Y-110130952D02*
X91957200Y-110178571D01*
X91957200Y-110178571D02*
X92004819Y-110273809D01*
X92004819Y-110273809D02*
X92004819Y-110559523D01*
X92004819Y-110559523D02*
X91957200Y-110654761D01*
X91957200Y-110654761D02*
X91909580Y-110702380D01*
X105499819Y-140888094D02*
X104499819Y-140888094D01*
X104499819Y-140888094D02*
X104499819Y-140649999D01*
X104499819Y-140649999D02*
X104547438Y-140507142D01*
X104547438Y-140507142D02*
X104642676Y-140411904D01*
X104642676Y-140411904D02*
X104737914Y-140364285D01*
X104737914Y-140364285D02*
X104928390Y-140316666D01*
X104928390Y-140316666D02*
X105071247Y-140316666D01*
X105071247Y-140316666D02*
X105261723Y-140364285D01*
X105261723Y-140364285D02*
X105356961Y-140411904D01*
X105356961Y-140411904D02*
X105452200Y-140507142D01*
X105452200Y-140507142D02*
X105499819Y-140649999D01*
X105499819Y-140649999D02*
X105499819Y-140888094D01*
X105499819Y-139364285D02*
X105499819Y-139935713D01*
X105499819Y-139649999D02*
X104499819Y-139649999D01*
X104499819Y-139649999D02*
X104642676Y-139745237D01*
X104642676Y-139745237D02*
X104737914Y-139840475D01*
X104737914Y-139840475D02*
X104785533Y-139935713D01*
X105179819Y-136601904D02*
X104179819Y-136601904D01*
X105179819Y-136030476D02*
X104608390Y-136459047D01*
X104179819Y-136030476D02*
X104751247Y-136601904D01*
X115185057Y-140565238D02*
X115137438Y-140660476D01*
X115137438Y-140660476D02*
X115042200Y-140755714D01*
X115042200Y-140755714D02*
X114899342Y-140898571D01*
X114899342Y-140898571D02*
X114851723Y-140993809D01*
X114851723Y-140993809D02*
X114851723Y-141089047D01*
X115089819Y-141041428D02*
X115042200Y-141136666D01*
X115042200Y-141136666D02*
X114946961Y-141231904D01*
X114946961Y-141231904D02*
X114756485Y-141279523D01*
X114756485Y-141279523D02*
X114423152Y-141279523D01*
X114423152Y-141279523D02*
X114232676Y-141231904D01*
X114232676Y-141231904D02*
X114137438Y-141136666D01*
X114137438Y-141136666D02*
X114089819Y-141041428D01*
X114089819Y-141041428D02*
X114089819Y-140850952D01*
X114089819Y-140850952D02*
X114137438Y-140755714D01*
X114137438Y-140755714D02*
X114232676Y-140660476D01*
X114232676Y-140660476D02*
X114423152Y-140612857D01*
X114423152Y-140612857D02*
X114756485Y-140612857D01*
X114756485Y-140612857D02*
X114946961Y-140660476D01*
X114946961Y-140660476D02*
X115042200Y-140755714D01*
X115042200Y-140755714D02*
X115089819Y-140850952D01*
X115089819Y-140850952D02*
X115089819Y-141041428D01*
X115089819Y-139660476D02*
X115089819Y-140231904D01*
X115089819Y-139946190D02*
X114089819Y-139946190D01*
X114089819Y-139946190D02*
X114232676Y-140041428D01*
X114232676Y-140041428D02*
X114327914Y-140136666D01*
X114327914Y-140136666D02*
X114375533Y-140231904D01*
X113066666Y-180854819D02*
X113066666Y-181569104D01*
X113066666Y-181569104D02*
X113019047Y-181711961D01*
X113019047Y-181711961D02*
X112923809Y-181807200D01*
X112923809Y-181807200D02*
X112780952Y-181854819D01*
X112780952Y-181854819D02*
X112685714Y-181854819D01*
X114066666Y-181854819D02*
X113495238Y-181854819D01*
X113780952Y-181854819D02*
X113780952Y-180854819D01*
X113780952Y-180854819D02*
X113685714Y-180997676D01*
X113685714Y-180997676D02*
X113590476Y-181092914D01*
X113590476Y-181092914D02*
X113495238Y-181140533D01*
D12*
%TO.C,J2*%
X143920000Y-129880000D02*
X143920000Y-127220000D01*
X95600000Y-129880000D02*
X143920000Y-129880000D01*
X95600000Y-129880000D02*
X95600000Y-127220000D01*
X95600000Y-127220000D02*
X143920000Y-127220000D01*
X93000000Y-128550000D02*
X93000000Y-127220000D01*
X93000000Y-127220000D02*
X94330000Y-127220000D01*
%TO.C,J3*%
X143910000Y-112080000D02*
X143910000Y-109420000D01*
X95590000Y-112080000D02*
X143910000Y-112080000D01*
X95590000Y-112080000D02*
X95590000Y-109420000D01*
X95590000Y-109420000D02*
X143910000Y-109420000D01*
X92990000Y-110750000D02*
X92990000Y-109420000D01*
X92990000Y-109420000D02*
X94320000Y-109420000D01*
%TO.C,D1*%
X104045000Y-142270000D02*
X104045000Y-138030000D01*
X104045000Y-138870000D02*
X101805000Y-138870000D01*
X104045000Y-138750000D02*
X101805000Y-138750000D01*
X104045000Y-138630000D02*
X101805000Y-138630000D01*
X104045000Y-138030000D02*
X101805000Y-138030000D01*
X102925000Y-142920000D02*
X102925000Y-142270000D01*
X102925000Y-137380000D02*
X102925000Y-138030000D01*
X101805000Y-142270000D02*
X104045000Y-142270000D01*
X101805000Y-138030000D02*
X101805000Y-142270000D01*
%TO.C,Q1*%
X113675000Y-140470000D02*
G75*
G02*
X109236522Y-142308478I-2600000J0D01*
G01*
X109236522Y-138631522D02*
G75*
G02*
X113675001Y-140470000I1838478J-1838478D01*
G01*
X109225000Y-138670000D02*
X109225000Y-142270000D01*
%TO.C,SW1*%
X92595000Y-146365000D02*
X92595000Y-145825000D01*
X92595000Y-144725000D02*
X92595000Y-141325000D01*
X92595000Y-140225000D02*
X92595000Y-139685000D01*
X90725000Y-146885000D02*
X92825000Y-146885000D01*
X92595000Y-146365000D02*
X92825000Y-146365000D01*
X92595000Y-139685000D02*
X92825000Y-139685000D01*
X90725000Y-139165000D02*
X92825000Y-139165000D01*
X95425000Y-146885000D02*
X95935000Y-146885000D01*
X95425000Y-146365000D02*
X95935000Y-146365000D01*
X95935000Y-146885000D02*
X95935000Y-146365000D01*
X95425000Y-139685000D02*
X95935000Y-139685000D01*
X95425000Y-139165000D02*
X95935000Y-139165000D01*
X95935000Y-139685000D02*
X95935000Y-139165000D01*
%TD*%
%LPC*%
D13*
%TO.C,J2*%
X142590000Y-128550000D03*
X140050000Y-128550000D03*
X137510000Y-128550000D03*
X134970000Y-128550000D03*
X132430000Y-128550000D03*
X129890000Y-128550000D03*
X127350000Y-128550000D03*
X124810000Y-128550000D03*
X122270000Y-128550000D03*
X119730000Y-128550000D03*
X117190000Y-128550000D03*
X114650000Y-128550000D03*
X112110000Y-128550000D03*
X109570000Y-128550000D03*
X107030000Y-128550000D03*
X104490000Y-128550000D03*
X101950000Y-128550000D03*
X99410000Y-128550000D03*
X96870000Y-128550000D03*
D14*
X94330000Y-128550000D03*
%TD*%
D13*
%TO.C,J3*%
X142580000Y-110750000D03*
X140040000Y-110750000D03*
X137500000Y-110750000D03*
X134960000Y-110750000D03*
X132420000Y-110750000D03*
X129880000Y-110750000D03*
X127340000Y-110750000D03*
X124800000Y-110750000D03*
X122260000Y-110750000D03*
X119720000Y-110750000D03*
X117180000Y-110750000D03*
X114640000Y-110750000D03*
X112100000Y-110750000D03*
X109560000Y-110750000D03*
X107020000Y-110750000D03*
X104480000Y-110750000D03*
X101940000Y-110750000D03*
X99400000Y-110750000D03*
X96860000Y-110750000D03*
D14*
X94320000Y-110750000D03*
%TD*%
D15*
%TO.C,D1*%
X102925000Y-143960000D03*
D16*
X102925000Y-136340000D03*
%TD*%
D17*
%TO.C,Q1*%
X111075000Y-141740000D03*
X111075000Y-140470000D03*
D18*
X111075000Y-139200000D03*
%TD*%
D19*
%TO.C,J1*%
X91325700Y-187960000D03*
X93865700Y-187960000D03*
X96405700Y-187960000D03*
X98945700Y-187960000D03*
X101485700Y-187960000D03*
X104025700Y-187960000D03*
X106565700Y-187960000D03*
X109105700Y-187960000D03*
X111645700Y-187960000D03*
X114185700Y-187960000D03*
X116725700Y-187960000D03*
X119265700Y-187960000D03*
X121805700Y-187960000D03*
X124345700Y-187960000D03*
X126885700Y-187960000D03*
X129425700Y-187960000D03*
X131965700Y-187960000D03*
X134505700Y-187960000D03*
X137045700Y-187960000D03*
X139585700Y-187960000D03*
X142125700Y-187960000D03*
X144665700Y-187960000D03*
%TD*%
D20*
%TO.C,SW1*%
X91625000Y-140775000D03*
X91625000Y-145275000D03*
D21*
X94115000Y-139515000D03*
X94115000Y-146525000D03*
%TD*%
%LPD*%
M02*
